<?xml version="1.0" encoding="UTF-8" standalone="no"?>
<!-- Created with Inkscape (http://www.inkscape.org/) -->

<svg
   xmlns:dc="http://purl.org/dc/elements/1.1/"
   xmlns:cc="http://creativecommons.org/ns#"
   xmlns:rdf="http://www.w3.org/1999/02/22-rdf-syntax-ns#"
   xmlns:svg="http://www.w3.org/2000/svg"
   xmlns="http://www.w3.org/2000/svg"
   xmlns:sodipodi="http://sodipodi.sourceforge.net/DTD/sodipodi-0.dtd"
   xmlns:inkscape="http://www.inkscape.org/namespaces/inkscape"
   width="16.942911mm"
   height="12.707428mm"
   viewBox="0 0 16.942911 12.707428"
   version="1.1"
   id="svg1700"
   sodipodi:docname="email.svg"
   inkscape:version="0.92.4 (5da689c313, 2019-01-14)">
  <defs
     id="defs1694" />
  <sodipodi:namedview
     id="base"
     pagecolor="#ffffff"
     bordercolor="#666666"
     borderopacity="1.0"
     inkscape:pageopacity="0.0"
     inkscape:pageshadow="2"
     inkscape:zoom="3.959798"
     inkscape:cx="-11.082778"
     inkscape:cy="39.684633"
     inkscape:document-units="mm"
     inkscape:current-layer="layer1"
     showgrid="false"
     inkscape:window-width="1920"
     inkscape:window-height="1001"
     inkscape:window-x="-9"
     inkscape:window-y="-9"
     inkscape:window-maximized="1" />
  <metadata
     id="metadata1697">
    <rdf:RDF>
      <cc:Work
         rdf:about="">
        <dc:format>image/svg+xml</dc:format>
        <dc:type
           rdf:resource="http://purl.org/dc/dcmitype/StillImage" />
      </cc:Work>
    </rdf:RDF>
  </metadata>
  <g
     inkscape:label="Layer 1"
     inkscape:groupmode="layer"
     id="layer1"
     transform="translate(-26.302354,-53.27724)">
    <g
       id="g1220"
       transform="translate(-24.818924,-23.83511)">
      <path
         style="fill:#dddddd;fill-opacity:1;stroke-width:0.26458335"
         d="m 51.121278,83.46235 v -6.35 h 8.466667 8.466667 v 6.35 6.35 h -8.466667 -8.466667 z m 15.610418,4.673011 c 0,-0.458757 -0.52998,-1.028815 -2.050521,-2.205586 l -2.050521,-1.586931 -1.031525,0.750378 c -1.456464,1.059499 -2.577525,0.962716 -4.018937,-0.346962 -0.548521,-0.498389 -0.569147,-0.488994 -2.831601,1.289834 -3.526757,2.772872 -3.624597,2.717923 4.839354,2.717923 h 7.143751 z m -10.847917,-4.68081 c 0,-0.204139 -3.055271,-2.902618 -3.286402,-2.902618 -0.08425,0 -0.153182,1.31318 -0.153182,2.918177 v 2.918177 l 1.719792,-1.378154 c 0.945885,-0.757985 1.719792,-1.457997 1.719792,-1.555582 z M 66.731696,83.310855 V 80.77811 l -0.654258,0.514639 c -0.359842,0.283052 -1.08399,0.891949 -1.609217,1.353105 l -0.95496,0.838465 0.744153,0.584328 c 0.409283,0.32138 1.044134,0.848456 1.410779,1.171279 0.366645,0.322824 0.755924,0.590714 0.865065,0.595313 0.109141,0.0046 0.198438,-1.131374 0.198438,-2.524384 z m -5.766384,0.746808 c 2.446412,-1.888686 5.761516,-5.008317 5.763819,-5.423959 0.0024,-0.429603 -0.513026,-0.463021 -7.141186,-0.463021 -4.215608,0 -7.14375,0.100622 -7.14375,0.245486 0,0.272522 5.910174,5.572935 6.746875,6.05079 0.71983,0.411107 0.708054,0.413824 1.774242,-0.409296 z"
         id="path1302"
         inkscape:connector-curvature="0" />
      <path
         style="fill:#d9d9d9;fill-opacity:1;stroke-width:0.26458335"
         d="m 51.121278,83.46235 v -6.35 h 8.466667 8.466667 v 6.35 6.35 h -8.466667 -8.466667 z m 15.610418,4.673011 c 0,-0.458915 -0.533201,-1.031961 -2.065019,-2.219335 l -2.065018,-1.60068 -1.024823,0.764127 c -1.439493,1.073312 -2.550597,0.980676 -3.996644,-0.333213 -0.548521,-0.498389 -0.569147,-0.488994 -2.831601,1.289834 -3.526757,2.772872 -3.624597,2.717923 4.839354,2.717923 h 7.143751 z M 55.883779,83.461857 c 0,-0.09357 -0.773907,-0.853796 -1.719792,-1.689399 l -1.719792,-1.519279 v 3.067554 3.067554 l 1.719792,-1.378154 c 0.945885,-0.757985 1.719792,-1.454709 1.719792,-1.548276 z M 66.731696,83.310855 V 80.77811 l -0.654258,0.514639 c -0.359842,0.283052 -1.08399,0.891949 -1.609217,1.353105 l -0.95496,0.838465 0.744153,0.584328 c 0.409283,0.32138 1.044134,0.848456 1.410779,1.171279 0.366645,0.322824 0.755924,0.590714 0.865065,0.595313 0.109141,0.0046 0.198438,-1.131374 0.198438,-2.524384 z m -5.770311,0.746808 c 2.617443,-2.029178 5.770311,-4.985523 5.770311,-5.410639 0,-0.446971 -0.44047,-0.476341 -7.143751,-0.476341 -4.257035,0 -7.14375,0.100006 -7.14375,0.247483 0,0.285626 5.852915,5.545704 6.706267,6.026996 0.768868,0.433642 0.745197,0.438707 1.810923,-0.387499 z"
         id="path1300"
         inkscape:connector-curvature="0" />
      <path
         style="fill:#d5d5d5;fill-opacity:1;stroke-width:0.26458335"
         d="m 51.121278,83.46235 v -6.35 h 8.466667 8.466667 v 6.35 6.35 h -8.466667 -8.466667 z m 15.610418,4.663267 c 0,-0.47148 -0.516941,-1.0283 -2.070145,-2.229846 l -2.070145,-1.601448 -0.774126,0.632884 c -1.434267,1.172579 -2.813373,1.112798 -4.240126,-0.1838 -0.552562,-0.502155 -0.568028,-0.495167 -2.844271,1.285068 -3.54895,2.775611 -3.638139,2.725542 4.855062,2.725542 h 7.143751 z M 55.810852,83.548838 c 0.04554,-0.136611 -0.693332,-0.934021 -1.641931,-1.772022 l -1.724726,-1.523637 v 3.084635 3.084635 l 1.641931,-1.312613 c 0.903062,-0.721937 1.679189,-1.424386 1.724726,-1.560998 z M 66.731696,83.310855 V 80.77811 l -0.654258,0.514639 c -0.359842,0.283052 -1.08399,0.891949 -1.609217,1.353105 l -0.95496,0.838465 0.744153,0.584328 c 0.409283,0.32138 1.044134,0.848456 1.410779,1.171279 0.366645,0.322824 0.755924,0.590714 0.865065,0.595313 0.109141,0.0046 0.198438,-1.131374 0.198438,-2.524384 z m -5.921664,0.879099 c 2.220427,-1.661182 5.921664,-5.127937 5.921664,-5.546512 0,-0.442283 -0.46051,-0.472759 -7.143751,-0.472759 -4.257035,0 -7.14375,0.100006 -7.14375,0.247483 0,0.285626 5.852915,5.545704 6.706267,6.026996 0.757084,0.426996 0.745272,0.428813 1.65957,-0.255208 z"
         id="path1298"
         inkscape:connector-curvature="0" />
      <path
         style="fill:#d1d1d1;fill-opacity:1;stroke-width:0.26458335"
         d="m 51.121278,83.46235 v -6.35 h 8.466667 8.466667 v 6.35 6.35 h -8.466667 -8.466667 z m 15.610418,4.663267 c 0,-0.47148 -0.516941,-1.0283 -2.070145,-2.229846 l -2.070145,-1.601448 -0.774126,0.632884 c -1.434267,1.172579 -2.813373,1.112798 -4.240126,-0.1838 -0.552562,-0.502155 -0.568028,-0.495167 -2.844271,1.285068 -3.54895,2.775611 -3.638139,2.725542 4.855062,2.725542 h 7.143751 z M 55.810852,83.548838 c 0.04554,-0.136611 -0.693332,-0.934021 -1.641931,-1.772022 l -1.724726,-1.523637 v 3.084635 3.084635 l 1.641931,-1.312613 c 0.903062,-0.721937 1.679189,-1.424386 1.724726,-1.560998 z M 66.731696,83.310855 V 80.77811 l -0.654258,0.514639 c -0.359842,0.283052 -1.08399,0.891949 -1.609217,1.353105 l -0.95496,0.838465 0.744153,0.584328 c 0.409283,0.32138 1.044134,0.848456 1.410779,1.171279 0.366645,0.322824 0.755924,0.590714 0.865065,0.595313 0.109141,0.0046 0.198438,-1.131374 0.198438,-2.524384 z m -5.921664,0.879099 c 2.220427,-1.661182 5.921664,-5.127937 5.921664,-5.546512 0,-0.442283 -0.46051,-0.472759 -7.143751,-0.472759 -5.548995,0 -7.139403,0.07383 -7.124279,0.330729 0.02368,0.402158 6.799101,6.283855 7.238692,6.283855 0.171571,0 0.670025,-0.267891 1.107674,-0.595313 z"
         id="path1296"
         inkscape:connector-curvature="0" />
      <path
         style="fill:#cccccc;fill-opacity:1;stroke-width:0.26458335"
         d="m 51.121278,83.46235 v -6.35 h 8.466667 8.466667 v 6.35 6.35 h -8.466667 -8.466667 z m 15.610418,4.671296 c 0,-0.457279 -0.531754,-1.040594 -2.022697,-2.218828 l -2.022696,-1.598458 -1.204104,0.76362 c -1.646636,1.044265 -2.467512,0.970594 -3.921394,-0.351932 l -0.571931,-0.520259 -2.269378,1.810093 c -3.503274,2.79427 -3.606715,2.736135 4.868449,2.736135 h 7.143751 z M 55.810852,83.548838 c 0.04554,-0.136611 -0.693332,-0.934021 -1.641931,-1.772022 l -1.724726,-1.523637 v 3.084635 3.084635 l 1.641931,-1.312613 c 0.903062,-0.721937 1.679189,-1.424386 1.724726,-1.560998 z m 10.920844,-0.233783 c 0,-2.868293 0.110428,-2.826308 -2.121987,-0.806781 l -1.138907,1.030298 0.765815,0.557202 c 0.421199,0.30646 1.065603,0.821329 1.43201,1.144152 0.366406,0.322824 0.75549,0.590714 0.864631,0.595313 0.109141,0.0046 0.198438,-1.129484 0.198438,-2.520184 z m -5.921664,0.874899 c 2.220427,-1.661182 5.921664,-5.127937 5.921664,-5.546512 0,-0.442283 -0.46051,-0.472759 -7.143751,-0.472759 -5.547025,0 -7.140224,0.07392 -7.127974,0.330729 0.01907,0.399854 6.801117,6.283855 7.242925,6.283855 0.171276,0 0.669487,-0.267891 1.107136,-0.595313 z"
         id="path1294"
         inkscape:connector-curvature="0" />
      <path
         style="fill:#c8c8c8;fill-opacity:1;stroke-width:0.26458335"
         d="m 51.121278,83.46235 v -6.35 h 8.466667 8.466667 v 6.35 6.35 h -8.466667 -8.466667 z m 15.610418,4.671296 c 0,-0.457279 -0.531754,-1.040594 -2.022697,-2.218828 l -2.022696,-1.598458 -1.204104,0.76362 c -1.648912,1.045709 -2.467347,0.971053 -3.928194,-0.35832 l -0.578732,-0.526648 -2.067102,1.661082 c -1.136905,0.913595 -2.230017,1.808883 -2.429137,1.989529 -0.879811,0.798185 -0.01545,0.908394 7.124526,0.908394 h 7.128136 z M 54.192617,85.027069 c 0.930139,-0.740134 1.691162,-1.43997 1.691162,-1.555189 0,-0.22932 -3.291014,-3.18453 -3.546392,-3.18453 -0.08678,0 -0.157775,1.369219 -0.157775,3.042708 0,1.67349 0.07241,3.042709 0.160921,3.042709 0.08851,0 0.921945,-0.605564 1.852084,-1.345698 z m 12.539079,-1.712014 c 0,-2.862407 0.151505,-2.803842 -2.137337,-0.826194 l -1.169955,1.010886 0.789014,0.576614 c 0.433958,0.317138 1.088802,0.840742 1.455209,1.163565 0.366406,0.322824 0.75549,0.590714 0.864631,0.595313 0.109141,0.0046 0.198438,-1.129484 0.198438,-2.520184 z m -5.90618,0.874899 c 1.988366,-1.433461 5.90618,-5.112692 5.90618,-5.546512 0,-0.442482 -0.465441,-0.472759 -7.267738,-0.472759 -5.715848,0 -7.236491,0.07062 -7.121402,0.330729 0.224937,0.508368 6.964275,6.283855 7.332547,6.283855 0.178558,0 0.696243,-0.267891 1.150413,-0.595313 z"
         id="path1292"
         inkscape:connector-curvature="0" />
      <path
         style="fill:#c4c4c4;fill-opacity:1;stroke-width:0.26458335"
         d="m 51.121278,83.46235 v -6.35 h 8.466667 8.466667 v 6.35 6.35 h -8.466667 -8.466667 z m 15.610418,4.671296 c 0,-0.457279 -0.531754,-1.040594 -2.022697,-2.218828 l -2.022696,-1.598458 -1.204104,0.76362 c -1.52097,0.964571 -2.075265,0.958309 -3.452005,-0.039 l -1.107979,-0.802617 -2.040573,1.639404 c -1.122314,0.901673 -2.203488,1.787206 -2.402608,1.967852 -0.879811,0.798185 -0.01545,0.908394 7.124526,0.908394 h 7.128136 z M 54.192617,85.027069 c 0.930139,-0.740134 1.691162,-1.43997 1.691162,-1.555189 0,-0.22932 -3.291014,-3.18453 -3.546392,-3.18453 -0.08678,0 -0.157775,1.369219 -0.157775,3.042708 0,1.67349 0.07241,3.042709 0.160921,3.042709 0.08851,0 0.921945,-0.605564 1.852084,-1.345698 z m 12.539079,-1.729408 c 0,-2.383999 -0.02945,-2.523283 -0.463021,-2.189766 -1.06103,0.816183 -2.579688,2.220524 -2.579688,2.385502 0,0.216077 2.565603,2.327502 2.844271,2.340761 0.109141,0.0052 0.198438,-1.13623 0.198438,-2.536497 z m -6.064311,1.022841 c 1.722863,-1.164312 6.064311,-5.218724 6.064311,-5.663368 0,-0.460406 -0.389119,-0.486451 -7.267738,-0.486451 -5.715836,0 -7.236496,0.07062 -7.121425,0.330729 0.227737,0.514782 6.94447,6.284071 7.313771,6.282111 0.180684,-9.52e-4 0.63567,-0.209318 1.011081,-0.463021 z"
         id="path1290"
         inkscape:connector-curvature="0" />
      <path
         style="fill:#c0c0c0;fill-opacity:1;stroke-width:0.26458335"
         d="m 51.121278,83.46235 v -6.35 h 8.466667 8.466667 v 6.35 6.35 h -8.466667 -8.466667 z m 15.610418,4.669239 c 0,-0.561561 -1.241404,-1.743097 -3.701931,-3.523401 -0.346091,-0.250413 -0.651761,-0.158565 -1.603968,0.481963 -1.367454,0.919855 -2.205211,0.876896 -3.596687,-0.184434 l -0.876985,-0.668909 -2.386256,1.910679 c -1.312442,1.050873 -2.386257,2.067245 -2.386257,2.258604 0,0.279077 1.439801,0.347926 7.276042,0.347926 h 7.276042 z m -12.539079,-3.10452 c 0.930139,-0.740134 1.691162,-1.43997 1.691162,-1.555189 0,-0.22932 -3.291014,-3.18453 -3.546392,-3.18453 -0.08678,0 -0.157775,1.369219 -0.157775,3.042708 0,1.67349 0.07241,3.042709 0.160921,3.042709 0.08851,0 0.921945,-0.605564 1.852084,-1.345698 z m 12.539079,-1.729408 c 0,-2.383999 -0.02945,-2.523283 -0.463021,-2.189766 -1.06103,0.816183 -2.579688,2.220524 -2.579688,2.385502 0,0.216077 2.565603,2.327502 2.844271,2.340761 0.109141,0.0052 0.198438,-1.13623 0.198438,-2.536497 z M 63.49076,81.967694 c 1.96268,-1.706296 3.240936,-3.010723 3.240936,-3.307292 0,-0.464684 -0.371534,-0.489719 -7.267738,-0.489719 -5.715836,0 -7.236496,0.07062 -7.121425,0.330729 0.275202,0.622074 6.984327,6.283855 7.446273,6.283855 0.25356,0 1.919439,-1.267908 3.701954,-2.817573 z"
         id="path1288"
         inkscape:connector-curvature="0" />
      <path
         style="fill:#bbbbbb;fill-opacity:1;stroke-width:0.26458335"
         d="m 51.121278,83.46235 v -6.35 h 8.466667 8.466667 v 6.35 6.35 h -8.466667 -8.466667 z m 15.610418,4.669239 c 0,-0.561561 -1.241404,-1.743097 -3.701931,-3.523401 -0.346091,-0.250413 -0.651761,-0.158565 -1.603968,0.481963 -1.367454,0.919855 -2.205211,0.876896 -3.596687,-0.184434 l -0.876985,-0.668909 -2.386256,1.910679 c -1.312442,1.050873 -2.386257,2.067245 -2.386257,2.258604 0,0.279077 1.439801,0.347926 7.276042,0.347926 h 7.276042 z m -12.419748,-3.190014 1.829125,-1.431191 -1.817705,-1.611517 c -0.999737,-0.886335 -1.891066,-1.611517 -1.98073,-1.611517 -0.08967,0 -0.163026,1.369219 -0.163026,3.042708 0,1.67349 0.06822,3.042709 0.151606,3.042709 0.08338,0 0.974711,-0.644037 1.98073,-1.431192 z m 12.367429,-2.855044 -0.07997,-1.375818 -1.455209,1.29443 c -0.800364,0.711936 -1.455208,1.374484 -1.455208,1.472328 0,0.09784 0.654844,0.714336 1.455208,1.369984 l 1.455209,1.192086 0.07997,-1.288596 c 0.04398,-0.708727 0.04398,-1.907713 0,-2.664414 z M 63.49076,81.967694 c 1.96268,-1.706296 3.240936,-3.010723 3.240936,-3.307292 0,-0.464719 -0.37211,-0.489719 -7.289189,-0.489719 -6.02361,0 -7.252453,0.0616 -7.077605,0.354771 0.440398,0.73843 6.992674,6.259813 7.428577,6.259813 0.25099,0 1.914766,-1.267908 3.697281,-2.817573 z"
         id="path1286"
         inkscape:connector-curvature="0" />
      <path
         style="fill:#b7b7b7;fill-opacity:1;stroke-width:0.26458335"
         d="m 51.121278,83.46235 v -6.35 h 8.466667 8.466667 v 6.35 6.35 h -8.466667 -8.466667 z m 15.610418,4.669239 c 0,-0.561561 -1.241404,-1.743097 -3.701931,-3.523401 -0.346091,-0.250413 -0.651761,-0.158565 -1.603968,0.481963 -1.367454,0.919855 -2.205211,0.876896 -3.596687,-0.184434 l -0.876985,-0.668909 -2.386256,1.910679 c -1.312442,1.050873 -2.386257,2.067245 -2.386257,2.258604 0,0.279077 1.439801,0.347926 7.276042,0.347926 h 7.276042 z m -12.419748,-3.190014 1.829125,-1.431191 -1.817705,-1.611517 c -0.999737,-0.886335 -1.891066,-1.611517 -1.98073,-1.611517 -0.08967,0 -0.163026,1.369219 -0.163026,3.042708 0,1.67349 0.06822,3.042709 0.151606,3.042709 0.08338,0 0.974711,-0.644037 1.98073,-1.431192 z m 12.367429,-2.855044 -0.07997,-1.375818 -1.455209,1.29443 c -0.800364,0.711936 -1.455208,1.374484 -1.455208,1.472328 0,0.09784 0.654844,0.714336 1.455208,1.369984 l 1.455209,1.192086 0.07997,-1.288596 c 0.04398,-0.708727 0.04398,-1.907713 0,-2.664414 z M 63.49076,81.967694 c 1.96268,-1.706296 3.240936,-3.010723 3.240936,-3.307292 0,-0.464733 -0.372349,-0.489719 -7.298091,-0.489719 -4.256257,0 -7.261331,0.100047 -7.209896,0.240036 0.190487,0.518442 7.14783,6.374548 7.573278,6.374548 0.24906,0 1.911258,-1.267908 3.693773,-2.817573 z"
         id="path1284"
         inkscape:connector-curvature="0" />
      <path
         style="fill:#b3b3b3;fill-opacity:1;stroke-width:0.26458335"
         d="m 51.121278,83.46235 v -6.35 h 8.466667 8.466667 v 6.35 6.35 h -8.466667 -8.466667 z m 15.817158,4.735708 c 0.06771,-0.352021 -1.518632,-1.802989 -4.050324,-3.70469 -0.149439,-0.112252 -0.804283,0.154152 -1.455208,0.59201 -1.374967,0.924901 -2.210232,0.88326 -3.603794,-0.179661 l -0.876985,-0.668909 -2.386256,1.910679 c -1.312442,1.050873 -2.386257,2.069129 -2.386257,2.26279 0,0.286319 1.37122,0.338969 7.338669,0.281779 6.483841,-0.06214 7.34816,-0.119681 7.420155,-0.493998 z m -12.626488,-3.256483 1.829125,-1.431191 -1.817705,-1.611517 c -0.999737,-0.886335 -1.891066,-1.611517 -1.98073,-1.611517 -0.08967,0 -0.163026,1.369219 -0.163026,3.042708 0,1.67349 0.06822,3.042709 0.151606,3.042709 0.08338,0 0.974711,-0.644037 1.98073,-1.431192 z m 12.684331,-1.62652 c 0,-3.178299 0.166289,-3.107604 -2.260851,-0.961156 l -1.289652,1.140508 0.91035,0.711575 c 0.500693,0.391367 1.210259,0.975704 1.576814,1.298528 0.366555,0.322823 0.755761,0.590714 0.864901,0.595312 0.109141,0.0046 0.198438,-1.248546 0.198438,-2.784767 z m -3.350705,-1.474547 c 1.842888,-1.619617 3.350705,-3.107899 3.350705,-3.307292 0,-0.298382 -1.314816,-0.362533 -7.430382,-0.362533 -4.499312,0 -7.395592,0.09765 -7.342188,0.247556 0.190668,0.535191 7.146781,6.367028 7.59448,6.367028 0.262174,0 1.984497,-1.325142 3.827385,-2.944759 z"
         id="path1282"
         inkscape:connector-curvature="0" />
      <path
         style="fill:#aeaeae;fill-opacity:1;stroke-width:0.26458335"
         d="m 51.121278,83.46235 v -6.35 h 8.466667 8.466667 v 6.35 6.35 h -8.466667 -8.466667 z m 15.79764,4.847051 c 0.175959,-0.45854 -0.965312,-1.598106 -3.24379,-3.238946 l -1.072193,-0.772136 -1.176766,0.791582 c -1.370599,0.921971 -2.20531,0.877354 -3.608455,-0.192877 l -0.888381,-0.677601 -2.374861,1.893856 c -1.306173,1.041621 -2.37486,2.061904 -2.37486,2.267297 0,0.312489 1.188918,0.373441 7.284346,0.373441 6.578525,0 7.300877,-0.04308 7.45496,-0.444616 z m -12.546504,-3.377136 1.795927,-1.418094 -1.747442,-1.547265 c -0.961093,-0.850995 -1.858557,-1.586952 -1.994365,-1.635459 -0.143705,-0.05133 -0.246922,1.192915 -0.246922,2.976563 0,1.685616 0.0893,3.059715 0.198437,3.053553 0.109141,-0.0062 1.006605,-0.649346 1.994365,-1.429298 z m 12.623865,-1.61721 c 0,-3.178299 0.166289,-3.107604 -2.260851,-0.961156 l -1.289652,1.140508 0.91035,0.711575 c 0.500693,0.391367 1.210259,0.975704 1.576814,1.298528 0.366555,0.322823 0.755761,0.590714 0.864901,0.595312 0.109141,0.0046 0.198438,-1.248546 0.198438,-2.784767 z m -3.350705,-1.474547 c 1.842888,-1.619617 3.350705,-3.107899 3.350705,-3.307292 0,-0.298382 -1.314816,-0.362533 -7.430382,-0.362533 -4.18834,0 -7.391901,0.101954 -7.342188,0.233666 0.0769,0.203739 3.030859,2.869867 6.117063,5.521022 0.550552,0.472943 1.215449,0.859896 1.47755,0.859896 0.262101,0 1.984364,-1.325142 3.827252,-2.944759 z"
         id="path1280"
         inkscape:connector-curvature="0" />
      <path
         style="fill:#aaaaaa;fill-opacity:1;stroke-width:0.26458335"
         d="m 51.121278,83.46235 v -6.35 h 8.466667 8.466667 v 6.35 6.35 h -8.466667 -8.466667 z m 15.875001,4.787137 c 0,-0.467847 -1.144329,-1.553762 -3.444637,-3.268802 l -0.931094,-0.694195 -1.185572,0.797497 c -1.379916,0.928227 -2.211527,0.885244 -3.617262,-0.186963 l -0.888381,-0.677601 -2.374861,1.893856 c -1.306173,1.041621 -2.37486,2.061904 -2.37486,2.267297 0,0.312641 1.206152,0.373441 7.408333,0.373441 7.111355,0 7.408334,-0.02023 7.408334,-0.50453 z m -12.68787,-3.265783 c 1.002264,-0.763984 1.818306,-1.448594 1.813429,-1.521354 -0.01195,-0.1783 -3.583295,-3.175 -3.783833,-3.175 -0.08712,0 -0.158393,1.369219 -0.158393,3.042708 0,1.67349 0.06896,3.042709 0.15325,3.042709 0.08429,0 0.973285,-0.625078 1.975547,-1.389063 z m 12.68787,-1.671662 V 80.5159 l -0.727604,0.544354 c -0.400183,0.299395 -1.203855,0.96179 -1.785938,1.471989 l -1.058333,0.927635 0.921036,0.72884 c 0.50657,0.400862 1.220945,0.992968 1.5875,1.315792 0.366555,0.322823 0.755761,0.590714 0.864901,0.595312 0.109141,0.0046 0.198438,-1.249902 0.198438,-2.78778 z m -3.34477,-1.456067 c 1.839624,-1.611111 3.34477,-3.099392 3.34477,-3.307292 0,-0.318637 -1.166892,-0.378 -7.430382,-0.378 -4.18834,0 -7.391901,0.101954 -7.342188,0.233666 0.0769,0.203739 3.030859,2.869867 6.117063,5.521022 0.550552,0.472943 1.21812,0.859896 1.483485,0.859896 0.265365,0 1.987629,-1.318182 3.827252,-2.929292 z"
         id="path1278"
         inkscape:connector-curvature="0" />
      <path
         style="fill:#a6a6a6;fill-opacity:1;stroke-width:0.26458335"
         d="m 51.121278,83.46235 v -6.35 h 8.466667 8.466667 v 6.35 6.35 h -8.466667 -8.466667 z m 15.875001,4.787137 c 0,-0.467847 -1.144329,-1.553762 -3.444637,-3.268802 l -0.931094,-0.694195 -1.185572,0.797497 c -1.379916,0.928227 -2.211527,0.885244 -3.617262,-0.186963 l -0.888381,-0.677601 -2.374861,1.893856 c -1.306173,1.041621 -2.37486,2.061904 -2.37486,2.267297 0,0.312641 1.206152,0.373441 7.408333,0.373441 7.111355,0 7.408334,-0.02023 7.408334,-0.50453 z M 54.415606,84.917558 c 0.942368,-0.727604 1.709789,-1.382448 1.70538,-1.455208 -0.01077,-0.177799 -3.581909,-3.175 -3.782981,-3.175 -0.08712,0 -0.158393,1.379141 -0.158393,3.064757 0,1.900633 0.09925,3.031257 0.261298,2.976562 0.143715,-0.04851 1.032328,-0.683506 1.974696,-1.411111 z m 12.580673,-1.619897 c 0,-3.169155 0.206999,-3.064452 -2.116667,-1.070637 -0.654844,0.561886 -1.190625,1.129234 -1.190625,1.260772 0,0.252827 2.769981,2.571497 3.108854,2.602331 0.109141,0.0099 0.198438,-1.246678 0.198438,-2.792466 z m -3.34477,-1.441686 c 1.839624,-1.611111 3.34477,-3.099392 3.34477,-3.307292 0,-0.318637 -1.166892,-0.378 -7.430382,-0.378 -4.18834,0 -7.391901,0.101954 -7.342188,0.233666 0.0769,0.203739 3.030859,2.869867 6.117063,5.521022 0.550552,0.472943 1.21812,0.859896 1.483485,0.859896 0.265365,0 1.987629,-1.318182 3.827252,-2.929292 z"
         id="path1276"
         inkscape:connector-curvature="0" />
      <path
         style="fill:#a2a2a2;fill-opacity:1;stroke-width:0.26458335"
         d="m 51.121278,83.46235 v -6.35 h 8.466667 8.466667 v 6.35 6.35 h -8.466667 -8.466667 z m 15.875001,4.773028 c 0,-0.33003 -0.77937,-1.147892 -2.143114,-2.248959 -1.178712,-0.951675 -2.235696,-1.730319 -2.348853,-1.730319 -0.113157,0 -0.360475,0.186444 -0.549595,0.414321 -0.590321,0.711293 -1.851607,1.227031 -2.563722,1.048301 -0.368017,-0.09237 -1.06727,-0.471621 -1.553895,-0.842788 L 56.952327,84.201085 54.56597,86.10411 c -1.312497,1.046664 -2.386358,2.071073 -2.386358,2.276466 0,0.312641 1.206152,0.373441 7.408333,0.373441 7.18182,0 7.408334,-0.01586 7.408334,-0.518639 z M 55.593441,83.958806 c 0.349638,-0.277126 0.587763,-0.53787 0.529167,-0.579431 -0.0586,-0.04156 -0.893648,-0.754267 -1.855672,-1.583794 -0.962024,-0.829527 -1.825227,-1.508231 -1.91823,-1.508231 -0.093,0 -0.169094,1.438878 -0.169094,3.197507 v 3.197508 l 1.389062,-1.109846 c 0.763985,-0.610415 1.67513,-1.336586 2.024767,-1.613713 z m 11.402838,-0.628748 c 0,-1.527968 -0.0526,-2.778125 -0.116895,-2.778125 -0.249401,0 -3.190397,2.703064 -3.190397,2.932287 0,0.255333 2.767149,2.574816 3.108854,2.605907 0.109141,0.0099 0.198438,-1.2321 0.198438,-2.760069 z m -3.34477,-1.474083 c 1.839624,-1.611111 3.34477,-3.099392 3.34477,-3.307292 0,-0.318637 -1.166892,-0.378 -7.430382,-0.378 -4.18834,0 -7.391901,0.101954 -7.342188,0.233666 0.0769,0.203739 3.030859,2.869867 6.117063,5.521022 0.550552,0.472943 1.21812,0.859896 1.483485,0.859896 0.265365,0 1.987629,-1.318182 3.827252,-2.929292 z"
         id="path1274"
         inkscape:connector-curvature="0" />
      <path
         style="fill:#9d9d9d;fill-opacity:1;stroke-width:0.26458335"
         d="m 51.121278,83.46235 v -6.35 h 8.466667 8.466667 v 6.35 6.35 h -8.466667 -8.466667 z m 15.875001,4.773028 c 0,-0.33003 -0.77937,-1.147892 -2.143114,-2.248959 -1.178712,-0.951675 -2.235696,-1.730319 -2.348853,-1.730319 -0.113157,0 -0.369146,0.197037 -0.568866,0.43786 -0.537875,0.648574 -2.03774,1.199528 -2.697651,0.990944 -0.31674,-0.100115 -0.960546,-0.47493 -1.430679,-0.832923 L 56.952327,84.201085 54.56597,86.10411 c -1.312497,1.046664 -2.386358,2.071073 -2.386358,2.276466 0,0.312641 1.206152,0.373441 7.408333,0.373441 7.18182,0 7.408334,-0.01586 7.408334,-0.518639 z M 55.593441,83.958806 c 0.349638,-0.277126 0.587763,-0.536632 0.529167,-0.576679 -0.0586,-0.04005 -0.969741,-0.824547 -2.024767,-1.743334 l -1.918229,-1.670522 v 3.357047 3.357047 l 1.389062,-1.109846 c 0.763985,-0.610415 1.67513,-1.336586 2.024767,-1.613713 z m 11.402838,-0.628748 c 0,-1.527968 -0.0526,-2.778125 -0.116895,-2.778125 -0.249401,0 -3.190397,2.703064 -3.190397,2.932287 0,0.255333 2.767149,2.574816 3.108854,2.605907 0.109141,0.0099 0.198438,-1.2321 0.198438,-2.760069 z m -3.34477,-1.474083 c 1.839624,-1.611111 3.34477,-3.099392 3.34477,-3.307292 0,-0.318611 -1.163953,-0.378 -7.408334,-0.378 -4.074583,0 -7.408333,0.09636 -7.408333,0.214121 0,0.117766 0.679898,0.802376 1.510884,1.521354 0.830987,0.718979 2.440962,2.110906 3.577724,3.093171 1.136762,0.982266 2.285467,1.785938 2.552679,1.785938 0.267212,0 1.990987,-1.318182 3.83061,-2.929292 z"
         id="path1272"
         inkscape:connector-curvature="0" />
      <path
         style="fill:#999999;fill-opacity:1;stroke-width:0.26458335"
         d="m 51.121278,83.46235 v -6.35 h 8.466667 8.466667 v 6.35 6.35 h -8.466667 -8.466667 z m 15.875001,4.773028 c 0,-0.33003 -0.77937,-1.147892 -2.143114,-2.248959 -1.178712,-0.951675 -2.235696,-1.730319 -2.348853,-1.730319 -0.113157,0 -0.369146,0.197037 -0.568866,0.43786 -0.537875,0.648574 -2.03774,1.199528 -2.697651,0.990944 -0.31674,-0.100115 -0.960546,-0.47493 -1.430679,-0.832923 L 56.952327,84.201085 54.56597,86.10411 c -1.312497,1.046664 -2.386358,2.071073 -2.386358,2.276466 0,0.312641 1.206152,0.373441 7.408333,0.373441 7.18182,0 7.408334,-0.01586 7.408334,-0.518639 z M 55.593441,83.958806 c 0.349638,-0.277126 0.587763,-0.536632 0.529167,-0.576679 -0.0586,-0.04005 -0.969741,-0.824547 -2.024767,-1.743334 l -1.918229,-1.670522 v 3.357047 3.357047 l 1.389062,-1.109846 c 0.763985,-0.610415 1.67513,-1.336586 2.024767,-1.613713 z m 11.402838,-0.628748 c 0,-1.527968 -0.0526,-2.778125 -0.116895,-2.778125 -0.251258,0 -3.190397,2.703948 -3.190397,2.935099 0,0.262516 2.776144,2.59414 3.108854,2.61106 0.109141,0.0055 0.198438,-1.240065 0.198438,-2.768034 z m -3.34477,-1.474083 c 1.839624,-1.611111 3.34477,-3.099392 3.34477,-3.307292 0,-0.318611 -1.163953,-0.378 -7.408334,-0.378 -4.074583,0 -7.408333,0.09636 -7.408333,0.214121 0,0.117766 0.679898,0.802376 1.510884,1.521354 0.830987,0.718979 2.440962,2.110906 3.577724,3.093171 1.136762,0.982266 2.285467,1.785938 2.552679,1.785938 0.267212,0 1.990987,-1.318182 3.83061,-2.929292 z"
         id="path1270"
         inkscape:connector-curvature="0" />
      <path
         style="fill:#959595;fill-opacity:1;stroke-width:0.26458335"
         d="m 51.121278,83.46235 v -6.35 h 8.466667 8.466667 v 6.35 6.35 h -8.466667 -8.466667 z m 15.875001,4.773028 c 0,-0.33003 -0.77937,-1.147892 -2.143114,-2.248959 -1.178712,-0.951675 -2.231822,-1.730319 -2.340243,-1.730319 -0.108421,0 -0.408573,0.233643 -0.667004,0.519206 -0.258432,0.285564 -0.881196,0.654955 -1.383921,0.820869 -0.832634,0.274794 -1.032247,0.228183 -2.241179,-0.523331 l -1.327135,-0.824992 -2.357036,1.879641 c -1.296369,1.033803 -2.357035,2.04769 -2.357035,2.253083 0,0.312641 1.206152,0.373441 7.408333,0.373441 7.18182,0 7.408334,-0.01586 7.408334,-0.518639 z M 55.593441,83.958806 c 0.349638,-0.277126 0.587763,-0.536632 0.529167,-0.576679 -0.0586,-0.04005 -0.969741,-0.824547 -2.024767,-1.743334 l -1.918229,-1.670522 v 3.357047 3.357047 l 1.389062,-1.109846 c 0.763985,-0.610415 1.67513,-1.336586 2.024767,-1.613713 z m 11.402838,-0.628748 c 0,-1.527968 -0.0526,-2.778125 -0.116895,-2.778125 -0.251258,0 -3.190397,2.703948 -3.190397,2.935099 0,0.262516 2.776144,2.59414 3.108854,2.61106 0.109141,0.0055 0.198438,-1.240065 0.198438,-2.768034 z m -3.34477,-1.474083 c 1.839624,-1.611111 3.34477,-3.099392 3.34477,-3.307292 0,-0.318611 -1.163953,-0.378 -7.408334,-0.378 -4.074583,0 -7.408333,0.09636 -7.408333,0.214121 0,0.117766 0.679898,0.802376 1.510884,1.521354 0.830987,0.718979 2.440962,2.110906 3.577724,3.093171 1.136762,0.982266 2.285467,1.785938 2.552679,1.785938 0.267212,0 1.990987,-1.318182 3.83061,-2.929292 z"
         id="path1268"
         inkscape:connector-curvature="0" />
      <path
         style="fill:#919191;fill-opacity:1;stroke-width:0.26458335"
         d="M 51.121278,83.466067 V 77.11235 h 8.471456 8.471455 l -0.07093,6.283854 -0.07093,6.283854 -8.400522,0.06986 -8.400521,0.06986 z m 15.875001,4.769311 c 0,-0.33003 -0.77937,-1.147892 -2.143114,-2.248959 -1.178712,-0.951675 -2.231822,-1.730319 -2.340243,-1.730319 -0.108421,0 -0.408573,0.233643 -0.667004,0.519206 -0.258432,0.285564 -0.881196,0.654955 -1.383921,0.820869 -0.832634,0.274794 -1.032247,0.228183 -2.241179,-0.523331 l -1.327135,-0.824992 -2.357036,1.879641 c -1.296369,1.033803 -2.357035,2.04769 -2.357035,2.253083 0,0.312641 1.206152,0.373441 7.408333,0.373441 7.18182,0 7.408334,-0.01586 7.408334,-0.518639 z m -11.426215,-4.258183 0.612327,-0.485479 -1.009202,-0.901109 c -0.555061,-0.495611 -1.455687,-1.288458 -2.00139,-1.761884 l -0.992187,-0.860774 v 3.357208 3.357208 l 1.389062,-1.109846 c 0.763985,-0.610415 1.66461,-1.328311 2.00139,-1.595324 z m 11.426215,-0.647137 c 0,-1.527968 -0.0526,-2.778125 -0.116895,-2.778125 -0.251258,0 -3.190397,2.703948 -3.190397,2.935099 0,0.262516 2.776144,2.59414 3.108854,2.61106 0.109141,0.0055 0.198438,-1.240065 0.198438,-2.768034 z m -3.34477,-1.474083 c 1.839624,-1.611111 3.34477,-3.099392 3.34477,-3.307292 0,-0.318611 -1.163953,-0.378 -7.408334,-0.378 -4.074583,0 -7.408333,0.09636 -7.408333,0.214121 0,0.117766 0.679898,0.802376 1.510884,1.521354 0.830987,0.718979 2.440962,2.110906 3.577724,3.093171 1.136762,0.982266 2.285467,1.785938 2.552679,1.785938 0.267212,0 1.990987,-1.318182 3.83061,-2.929292 z"
         id="path1266"
         inkscape:connector-curvature="0" />
      <path
         style="fill:#8c8c8c;fill-opacity:1;stroke-width:0.26458335"
         d="M 51.121278,83.466067 V 77.11235 h 8.471456 8.471455 l -0.07093,6.283854 -0.07093,6.283854 -8.400522,0.06986 -8.400521,0.06986 z m 15.875001,4.769311 c 0,-0.33003 -0.77937,-1.147892 -2.143114,-2.248959 -1.178712,-0.951675 -2.231822,-1.730319 -2.340243,-1.730319 -0.108421,0 -0.408573,0.233643 -0.667004,0.519206 -0.258432,0.285564 -0.881196,0.654955 -1.383921,0.820869 -0.832634,0.274794 -1.032247,0.228183 -2.241179,-0.523331 l -1.327135,-0.824992 -2.357036,1.879641 c -1.296369,1.033803 -2.357035,2.04769 -2.357035,2.253083 0,0.312641 1.206152,0.373441 7.408333,0.373441 7.18182,0 7.408334,-0.01586 7.408334,-0.518639 z m -11.426215,-4.258183 0.612327,-0.485479 -1.009202,-0.901109 c -0.555061,-0.495611 -1.455687,-1.288458 -2.00139,-1.761884 l -0.992187,-0.860774 v 3.357208 3.357208 l 1.389062,-1.109846 c 0.763985,-0.610415 1.66461,-1.328311 2.00139,-1.595324 z m 11.426215,-0.647137 c 0,-1.527968 -0.0526,-2.778125 -0.116895,-2.778125 -0.251258,0 -3.190397,2.703948 -3.190397,2.935099 0,0.262516 2.776144,2.59414 3.108854,2.61106 0.109141,0.0055 0.198438,-1.240065 0.198438,-2.768034 z m -3.34477,-1.474083 c 1.839624,-1.611111 3.34477,-3.099392 3.34477,-3.307292 0,-0.318611 -1.163953,-0.378 -7.408334,-0.378 -4.074583,0 -7.408333,0.09636 -7.408333,0.214121 0,0.117766 0.679898,0.802376 1.510884,1.521354 0.830987,0.718979 2.440962,2.110906 3.577724,3.093171 1.136762,0.982266 2.285467,1.785938 2.552679,1.785938 0.267212,0 1.990987,-1.318182 3.83061,-2.929292 z"
         id="path1264"
         inkscape:connector-curvature="0" />
      <path
         style="fill:#888888;fill-opacity:1;stroke-width:0.26458335"
         d="M 51.121278,83.466067 V 77.11235 h 8.471456 8.471455 l -0.07093,6.283854 -0.07093,6.283854 -8.400522,0.06986 -8.400521,0.06986 z m 15.875001,4.769311 c 0,-0.33003 -0.77937,-1.147892 -2.143114,-2.248959 -1.178712,-0.951675 -2.231822,-1.730319 -2.340243,-1.730319 -0.108421,0 -0.408573,0.233643 -0.667004,0.519206 -0.258432,0.285564 -0.881196,0.654955 -1.383921,0.820869 -0.832634,0.274794 -1.032247,0.228183 -2.241179,-0.523331 l -1.327135,-0.824992 -2.357036,1.879641 c -1.296369,1.033803 -2.357035,2.04769 -2.357035,2.253083 0,0.312641 1.206152,0.373441 7.408333,0.373441 7.18182,0 7.408334,-0.01586 7.408334,-0.518639 z M 55.978087,83.704226 c 0.211132,-0.179236 -0.288511,-0.691201 -2.806288,-2.875503 l -0.992187,-0.860774 v 3.357482 3.357482 l 1.785937,-1.39316 c 0.982266,-0.766238 1.887908,-1.479725 2.012538,-1.585527 z m 11.018192,-0.374168 c 0,-1.527968 -0.0526,-2.778125 -0.116895,-2.778125 -0.251258,0 -3.190397,2.703948 -3.190397,2.935099 0,0.262516 2.776144,2.59414 3.108854,2.61106 0.109141,0.0055 0.198438,-1.240065 0.198438,-2.768034 z m -3.324958,-1.47075 c 1.828727,-1.609277 3.324958,-3.097558 3.324958,-3.307292 0,-0.322975 -1.133733,-0.381333 -7.408334,-0.381333 -4.074583,0 -7.408333,0.09368 -7.408333,0.208176 0,0.19936 3.9386,3.746977 6.157793,5.546512 0.583235,0.472943 1.273846,0.859896 1.534692,0.859896 0.260846,0 1.970496,-1.316682 3.799224,-2.925959 z"
         id="path1262"
         inkscape:connector-curvature="0" />
      <path
         style="fill:#848484;fill-opacity:1;stroke-width:0.26458335"
         d="M 51.121278,83.466067 V 77.11235 h 8.471456 8.471455 l -0.07093,6.283854 -0.07093,6.283854 -8.400522,0.06986 -8.400521,0.06986 z m 15.875001,4.769311 c 0,-0.33003 -0.77937,-1.147892 -2.143114,-2.248959 -1.178712,-0.951675 -2.235696,-1.730319 -2.348853,-1.730319 -0.113157,0 -0.369146,0.197037 -0.568866,0.43786 -0.199719,0.240823 -0.744384,0.597229 -1.210366,0.792013 -0.942562,0.393998 -1.711471,0.20913 -3.027363,-0.727868 l -0.762783,-0.543149 -2.377661,1.896089 c -1.307714,1.042849 -2.377661,2.064138 -2.377661,2.269531 0,0.312641 1.206152,0.373441 7.408333,0.373441 7.18182,0 7.408334,-0.01586 7.408334,-0.518639 z M 55.978087,83.704226 c 0.211132,-0.179236 -0.288511,-0.691201 -2.806288,-2.875503 l -0.992187,-0.860774 v 3.357482 3.357482 l 1.785937,-1.39316 c 0.982266,-0.766238 1.887908,-1.479725 2.012538,-1.585527 z m 11.018192,-0.389783 c 0,-2.164167 -0.07453,-2.749135 -0.330729,-2.595806 -0.792386,0.474225 -3.110459,2.606608 -3.045486,2.801527 0.09152,0.274559 2.914337,2.56453 3.177777,2.577928 0.109141,0.0055 0.198438,-1.247092 0.198438,-2.783649 z m -3.315084,-1.453469 c 1.823296,-1.60836 3.315084,-3.096641 3.315084,-3.307291 0,-0.325158 -1.118823,-0.383 -7.408334,-0.383 -4.074583,0 -7.408333,0.09368 -7.408333,0.208176 0,0.19936 3.9386,3.746977 6.157793,5.546512 0.583235,0.472943 1.27829,0.859896 1.544567,0.859896 0.266276,0 1.975927,-1.315932 3.799223,-2.924293 z"
         id="path1260"
         inkscape:connector-curvature="0" />
      <path
         style="fill:#7f7f7f;fill-opacity:1;stroke-width:0.26458335"
         d="m 51.30137,89.639664 c -0.09905,-0.09905 -0.180092,-2.958217 -0.180092,-6.353703 V 77.11235 h 8.471456 8.471455 l -0.07093,6.283854 -0.07093,6.283854 -8.22043,0.06985 c -4.521237,0.03842 -8.301471,-0.01119 -8.400521,-0.110242 z m 15.694909,-1.404286 c 0,-0.33003 -0.77937,-1.147892 -2.143114,-2.248959 -1.178712,-0.951675 -2.235696,-1.730319 -2.348853,-1.730319 -0.113157,0 -0.369146,0.197037 -0.568866,0.43786 -0.199719,0.240823 -0.744384,0.597229 -1.210366,0.792013 -0.942562,0.393998 -1.711471,0.20913 -3.027363,-0.727868 l -0.762783,-0.543149 -2.377661,1.896089 c -1.307714,1.042849 -2.377661,2.064138 -2.377661,2.269531 0,0.312641 1.206152,0.373441 7.408333,0.373441 7.18182,0 7.408334,-0.01586 7.408334,-0.518639 z M 56.01607,83.475827 c 0,-0.104459 -0.863203,-0.934708 -1.918229,-1.844998 l -1.918229,-1.655072 v 3.345909 3.345908 l 1.918229,-1.50091 c 1.055026,-0.825502 1.918229,-1.586378 1.918229,-1.690837 z m 10.980209,-0.161384 c 0,-2.164167 -0.07453,-2.749135 -0.330729,-2.595806 -0.792386,0.474225 -3.110459,2.606608 -3.045486,2.801527 0.09152,0.274559 2.914337,2.56453 3.177777,2.577928 0.109141,0.0055 0.198438,-1.247092 0.198438,-2.783649 z m -3.315084,-1.453469 c 1.823296,-1.60836 3.315084,-3.096641 3.315084,-3.307291 0,-0.325158 -1.118823,-0.383 -7.408334,-0.383 -4.074583,0 -7.408333,0.09368 -7.408333,0.208176 0,0.19936 3.9386,3.746977 6.157793,5.546512 0.583235,0.472943 1.27829,0.859896 1.544567,0.859896 0.266276,0 1.975927,-1.315932 3.799223,-2.924293 z"
         id="path1258"
         inkscape:connector-curvature="0" />
      <path
         style="fill:#7b7b7b;fill-opacity:1;stroke-width:0.26458335"
         d="m 51.30137,89.639664 c -0.09905,-0.09905 -0.180092,-2.958217 -0.180092,-6.353703 V 77.11235 h 8.471456 8.471455 l -0.07093,6.283854 -0.07093,6.283854 -8.22043,0.06985 c -4.521237,0.03842 -8.301471,-0.01119 -8.400521,-0.110242 z m 15.694909,-1.405168 c 0,-0.477234 -2.182488,-2.522128 -3.876425,-3.632038 -0.598468,-0.392132 -0.680164,-0.383586 -1.226644,0.128307 -1.33182,1.24753 -2.480359,1.252517 -4.150106,0.01802 -0.543275,-0.401659 -0.882252,-0.497426 -1.120659,-0.316604 -2.356911,1.787631 -4.442833,3.638391 -4.442833,3.941957 0,0.321073 1.146847,0.37988 7.408333,0.37988 7.186096,0 7.408334,-0.01558 7.408334,-0.519521 z M 56.01607,83.490215 c 0,-0.112373 -0.863203,-0.949096 -1.918229,-1.859386 l -1.918229,-1.655072 v 3.349854 3.349853 l 1.918229,-1.490468 c 1.055026,-0.819757 1.918229,-1.582409 1.918229,-1.694781 z m 10.980209,-0.160157 c 0,-1.527968 -0.06751,-2.778125 -0.150014,-2.778125 -0.290782,0 -3.292417,2.769583 -3.22402,2.974775 0.08998,0.269946 2.915891,2.558176 3.175596,2.571384 0.109141,0.0055 0.198438,-1.240065 0.198438,-2.768034 z m -3.315084,-1.469084 c 1.823296,-1.60836 3.315084,-3.096641 3.315084,-3.307291 0,-0.325185 -1.121627,-0.383 -7.430382,-0.383 -4.981228,0 -7.400434,0.08984 -7.339524,0.272575 0.210753,0.632259 6.99608,6.320203 7.552218,6.330807 0.380946,0.0073 1.753115,-1.01699 3.902604,-2.913091 z"
         id="path1256"
         inkscape:connector-curvature="0" />
      <path
         style="fill:#777777;fill-opacity:1;stroke-width:0.26458335"
         d="m 51.30137,89.639664 c -0.09905,-0.09905 -0.180092,-2.958217 -0.180092,-6.353703 V 77.11235 h 8.471456 8.471455 l -0.07093,6.283854 -0.07093,6.283854 -8.22043,0.06985 c -4.521237,0.03842 -8.301471,-0.01119 -8.400521,-0.110242 z m 15.694909,-1.405168 c 0,-0.477234 -2.182488,-2.522128 -3.876425,-3.632038 -0.598468,-0.392132 -0.680164,-0.383586 -1.226644,0.128307 -1.33182,1.24753 -2.480359,1.252517 -4.150106,0.01802 -0.543275,-0.401659 -0.882252,-0.497426 -1.120659,-0.316604 -2.356911,1.787631 -4.442833,3.638391 -4.442833,3.941957 0,0.321073 1.146847,0.37988 7.408333,0.37988 7.186096,0 7.408334,-0.01558 7.408334,-0.519521 z M 56.01607,83.490215 c 0,-0.112373 -0.863203,-0.949096 -1.918229,-1.859386 l -1.918229,-1.655072 v 3.349854 3.349853 l 1.918229,-1.490468 c 1.055026,-0.819757 1.918229,-1.582409 1.918229,-1.694781 z m 10.980209,-0.160157 c 0,-1.527968 -0.06751,-2.778125 -0.150014,-2.778125 -0.290782,0 -3.292417,2.769583 -3.22402,2.974775 0.08998,0.269946 2.915891,2.558176 3.175596,2.571384 0.109141,0.0055 0.198438,-1.240065 0.198438,-2.768034 z m -3.315084,-1.469084 c 1.823296,-1.60836 3.315084,-3.096641 3.315084,-3.307291 0,-0.325185 -1.121627,-0.383 -7.430382,-0.383 -4.981228,0 -7.400434,0.08984 -7.339524,0.272575 0.210753,0.632259 6.99608,6.320203 7.552218,6.330807 0.380946,0.0073 1.753115,-1.01699 3.902604,-2.913091 z"
         id="path1254"
         inkscape:connector-curvature="0" />
      <path
         style="fill:#737373;fill-opacity:1;stroke-width:0.26458335"
         d="m 51.30137,89.639664 c -0.09905,-0.09905 -0.180092,-2.958217 -0.180092,-6.353703 V 77.11235 h 8.471456 8.471455 l -0.07093,6.283854 -0.07093,6.283854 -8.22043,0.06985 c -4.521237,0.03842 -8.301471,-0.01119 -8.400521,-0.110242 z m 15.694909,-1.405168 c 0,-0.477234 -2.182488,-2.522128 -3.876425,-3.632038 -0.598468,-0.392132 -0.680164,-0.383586 -1.226644,0.128307 -1.33182,1.24753 -2.480359,1.252517 -4.150106,0.01802 -0.543275,-0.401659 -0.882252,-0.497426 -1.120659,-0.316604 -2.356911,1.787631 -4.442833,3.638391 -4.442833,3.941957 0,0.321073 1.146847,0.37988 7.408333,0.37988 7.186096,0 7.408334,-0.01558 7.408334,-0.519521 z M 56.01607,83.490215 c 0,-0.112373 -0.863203,-0.949096 -1.918229,-1.859386 l -1.918229,-1.655072 v 3.349854 3.349853 l 1.918229,-1.490468 c 1.055026,-0.819757 1.918229,-1.582409 1.918229,-1.694781 z m 10.980209,-0.160157 c 0,-1.527968 -0.06751,-2.778125 -0.150014,-2.778125 -0.290782,0 -3.292417,2.769583 -3.22402,2.974775 0.08998,0.269946 2.915891,2.558176 3.175596,2.571384 0.109141,0.0055 0.198438,-1.240065 0.198438,-2.768034 z m -3.315084,-1.469084 c 1.823296,-1.60836 3.315084,-3.096641 3.315084,-3.307291 0,-0.325185 -1.121627,-0.383 -7.430382,-0.383 -5.132814,0 -7.401373,0.08703 -7.336567,0.281448 0.212999,0.638995 6.988181,6.313938 7.549261,6.323316 0.379811,0.0063 1.75952,-1.024022 3.902604,-2.914473 z"
         id="path1252"
         inkscape:connector-curvature="0" />
      <path
         style="fill:#6e6e6e;fill-opacity:1;stroke-width:0.26458335"
         d="m 51.297667,89.635961 c -0.09701,-0.09701 -0.176389,-2.954514 -0.176389,-6.35 V 77.11235 h 8.334376 8.334375 l 0.01393,0.926042 c 0.0077,0.509323 0.01393,2.890573 0.01393,5.291666 0,2.401094 -0.0063,4.841875 -0.01393,5.423959 l -0.01393,1.058333 h -8.157986 c -4.486893,0 -8.237362,-0.07937 -8.334376,-0.176389 z m 15.650868,-1.45908 c -0.116887,-0.79789 -4.124684,-4.101515 -4.57312,-3.769621 -2.063117,1.526946 -2.783912,1.612902 -4.360907,0.520044 -0.733618,-0.508398 -1.171904,-0.661056 -1.40077,-0.487897 -2.315962,1.752246 -4.434126,3.63185 -4.434126,3.93473 0,0.321095 1.149257,0.37988 7.426735,0.37988 h 7.426736 z M 54.42857,84.941409 c 0.727604,-0.576695 1.432726,-1.142103 1.566937,-1.256463 0.22289,-0.189923 -0.52366,-0.944316 -2.955999,-2.987056 l -0.859896,-0.722163 v 3.363208 c 0,3.162324 0.02766,3.341939 0.463021,3.007109 0.254661,-0.195855 1.058333,-0.827941 1.785937,-1.404635 z m 12.567709,-1.611351 c 0,-1.527968 -0.06751,-2.778125 -0.150014,-2.778125 -0.235248,0 -3.28957,2.74116 -3.28957,2.952287 0,0.218505 2.944532,2.572828 3.241146,2.591483 0.109141,0.0069 0.198438,-1.237676 0.198438,-2.765645 z m -3.315084,-1.469084 c 1.823296,-1.60836 3.315084,-3.096641 3.315084,-3.307291 0,-0.325185 -1.121627,-0.383 -7.430382,-0.383 -5.132814,0 -7.401373,0.08703 -7.336567,0.281448 0.212999,0.638995 6.988181,6.313938 7.549261,6.323316 0.379811,0.0063 1.75952,-1.024022 3.902604,-2.914473 z"
         id="path1250"
         inkscape:connector-curvature="0" />
      <path
         style="fill:#6a6a6a;fill-opacity:1;stroke-width:0.26458335"
         d="m 51.297667,89.635961 c -0.09701,-0.09701 -0.176389,-2.954514 -0.176389,-6.35 V 77.11235 h 8.334376 8.334375 l 0.01393,0.926042 c 0.0077,0.509323 0.01393,2.890573 0.01393,5.291666 0,2.401094 -0.0063,4.841875 -0.01393,5.423959 l -0.01393,1.058333 h -8.157986 c -4.486893,0 -8.237362,-0.07937 -8.334376,-0.176389 z m 15.650868,-1.45908 c -0.116887,-0.79789 -4.124684,-4.101515 -4.57312,-3.769621 -2.063117,1.526946 -2.783912,1.612902 -4.360907,0.520044 -0.733618,-0.508398 -1.171904,-0.661056 -1.40077,-0.487897 -2.315962,1.752246 -4.434126,3.63185 -4.434126,3.93473 0,0.321095 1.149257,0.37988 7.426735,0.37988 h 7.426736 z M 54.42857,84.941409 c 0.727604,-0.576695 1.432726,-1.142103 1.566937,-1.256463 0.22289,-0.189923 -0.52366,-0.944316 -2.955999,-2.987056 l -0.859896,-0.722163 v 3.363208 c 0,3.162324 0.02766,3.341939 0.463021,3.007109 0.254661,-0.195855 1.058333,-0.827941 1.785937,-1.404635 z m 12.567709,-1.611351 c 0,-1.527968 -0.06751,-2.778125 -0.150014,-2.778125 -0.235248,0 -3.28957,2.74116 -3.28957,2.952287 0,0.218505 2.944532,2.572828 3.241146,2.591483 0.109141,0.0069 0.198438,-1.237676 0.198438,-2.765645 z m -3.315084,-1.469084 c 1.823296,-1.60836 3.315084,-3.096641 3.315084,-3.307291 0,-0.325185 -1.121627,-0.383 -7.430382,-0.383 -5.132814,0 -7.401373,0.08703 -7.336567,0.281448 0.212999,0.638995 6.988181,6.313938 7.549261,6.323316 0.379811,0.0063 1.75952,-1.024022 3.902604,-2.914473 z"
         id="path1248"
         inkscape:connector-curvature="0" />
      <path
         style="fill:#666666;fill-opacity:1;stroke-width:0.26458335"
         d="m 51.297667,89.635961 c -0.09701,-0.09701 -0.176389,-2.954514 -0.176389,-6.35 V 77.11235 h 8.334376 8.334375 l 0.01393,0.926042 c 0.0077,0.509323 0.01393,2.890573 0.01393,5.291666 0,2.401094 -0.0063,4.841875 -0.01393,5.423959 l -0.01393,1.058333 h -8.157986 c -4.486893,0 -8.237362,-0.07937 -8.334376,-0.176389 z m 15.650868,-1.45908 c -0.116887,-0.79789 -4.124684,-4.101515 -4.57312,-3.769621 -2.022282,1.496723 -2.816176,1.590543 -4.366681,0.516042 -0.729491,-0.505537 -1.166181,-0.657016 -1.394996,-0.483895 -2.315962,1.752246 -4.434126,3.63185 -4.434126,3.93473 0,0.321095 1.149257,0.37988 7.426735,0.37988 h 7.426736 z M 54.42857,84.941409 c 0.727604,-0.576695 1.432726,-1.142103 1.566937,-1.256463 0.22289,-0.189923 -0.52366,-0.944316 -2.955999,-2.987056 l -0.859896,-0.722163 v 3.363208 c 0,3.162324 0.02766,3.341939 0.463021,3.007109 0.254661,-0.195855 1.058333,-0.827941 1.785937,-1.404635 z m 12.567709,-1.611351 c 0,-1.527968 -0.06751,-2.778125 -0.150014,-2.778125 -0.235248,0 -3.28957,2.74116 -3.28957,2.952287 0,0.218505 2.944532,2.572828 3.241146,2.591483 0.109141,0.0069 0.198438,-1.237676 0.198438,-2.765645 z M 63.62698,81.918961 c 1.780354,-1.576468 3.275503,-3.064749 3.322553,-3.307292 0.07821,-0.403176 -0.553183,-0.440986 -7.364236,-0.440986 -5.146523,0 -7.420777,0.08702 -7.355967,0.281448 0.216891,0.650672 6.98882,6.31394 7.561191,6.323316 0.394874,0.0065 1.704159,-0.968377 3.836459,-2.856486 z"
         id="path1246"
         inkscape:connector-curvature="0" />
      <path
         style="fill:#626262;fill-opacity:1;stroke-width:0.26458335"
         d="m 51.297667,89.635961 c -0.09701,-0.09701 -0.176389,-2.954514 -0.176389,-6.35 V 77.11235 h 8.334376 8.334375 l 0.01393,0.926042 c 0.0077,0.509323 0.01393,2.890573 0.01393,5.291666 0,2.401094 -0.0063,4.841875 -0.01393,5.423959 l -0.01393,1.058333 h -8.157986 c -4.486893,0 -8.237362,-0.07937 -8.334376,-0.176389 z m 15.683988,-1.477257 c -0.01899,-0.773233 -4.129901,-4.107035 -4.617299,-3.744468 -1.998748,1.486836 -2.808187,1.581439 -4.355622,0.509066 -0.729491,-0.505537 -1.166181,-0.657016 -1.394996,-0.483895 -2.315962,1.752246 -4.434126,3.63185 -4.434126,3.93473 0,0.321073 1.146847,0.37988 7.408333,0.37988 h 7.408334 z M 54.42857,84.941409 c 0.727604,-0.576695 1.432726,-1.142103 1.566937,-1.256463 0.22289,-0.189923 -0.52366,-0.944316 -2.955999,-2.987056 l -0.859896,-0.722163 v 3.363208 c 0,3.162324 0.02766,3.341939 0.463021,3.007109 0.254661,-0.195855 1.058333,-0.827941 1.785937,-1.404635 z m 12.458588,-4.322207 c -0.153731,-0.153732 -3.330463,2.572332 -3.330463,2.857986 0,0.110034 0.744141,0.795306 1.653646,1.522825 l 1.653646,1.322763 0.07545,-2.787923 c 0.0415,-1.533357 0.01797,-2.8454 -0.05228,-2.915651 z m -3.261863,1.311682 c 1.779437,-1.569911 3.27459,-3.058192 3.322562,-3.307292 0.08066,-0.418831 -0.473312,-0.452909 -7.36256,-0.452909 -5.045971,0 -7.420149,0.0889 -7.357944,0.275514 0.05051,0.151533 1.638011,1.637736 3.527777,3.302674 2.200069,1.938322 3.651554,3.028821 4.035383,3.031778 0.389755,0.003 1.731175,-0.993855 3.834782,-2.849765 z"
         id="path1244"
         inkscape:connector-curvature="0" />
      <path
         style="fill:#5d5d5d;fill-opacity:1;stroke-width:0.26458335"
         d="m 51.297667,89.635961 c -0.09701,-0.09701 -0.176389,-2.954514 -0.176389,-6.35 V 77.11235 h 8.334376 8.334375 l 0.01393,0.926042 c 0.0077,0.509323 0.01393,2.890573 0.01393,5.291666 0,2.401094 -0.0063,4.841875 -0.01393,5.423959 l -0.01393,1.058333 h -8.157986 c -4.486893,0 -8.237362,-0.07937 -8.334376,-0.176389 z M 66.9841,88.158704 c -0.0086,-0.419344 -0.608283,-1.064562 -2.028832,-2.182812 -1.109159,-0.873125 -2.112186,-1.626013 -2.228948,-1.673084 -0.116763,-0.04707 -0.624138,0.228544 -1.127502,0.612478 -1.207389,0.92092 -2.269342,0.923291 -3.590084,0.008 -0.729491,-0.505537 -1.166181,-0.657016 -1.394996,-0.483895 -2.315962,1.752246 -4.434126,3.63185 -4.434126,3.93473 0,0.321073 1.146847,0.37988 7.408333,0.37988 h 7.408334 z M 54.42857,84.941409 c 0.727604,-0.576695 1.432726,-1.142103 1.566937,-1.256463 0.22289,-0.189923 -0.52366,-0.944316 -2.955999,-2.987056 l -0.859896,-0.722163 v 3.363208 c 0,3.162324 0.02766,3.341939 0.463021,3.007109 0.254661,-0.195855 1.058333,-0.827941 1.785937,-1.404635 z m 12.458588,-4.322207 c -0.153731,-0.153732 -3.330463,2.572332 -3.330463,2.857986 0,0.110034 0.744141,0.795306 1.653646,1.522825 l 1.653646,1.322763 0.07545,-2.787923 c 0.0415,-1.533357 0.01797,-2.8454 -0.05228,-2.915651 z m -3.261863,1.311682 c 1.779437,-1.569911 3.27459,-3.058192 3.322562,-3.307292 0.08066,-0.418831 -0.473312,-0.452909 -7.36256,-0.452909 -5.045971,0 -7.420149,0.0889 -7.357944,0.275514 0.05051,0.151533 1.638011,1.637736 3.527777,3.302674 2.200069,1.938322 3.651554,3.028821 4.035383,3.031778 0.389755,0.003 1.731175,-0.993855 3.834782,-2.849765 z"
         id="path1242"
         inkscape:connector-curvature="0" />
      <path
         style="fill:#595959;fill-opacity:1;stroke-width:0.26458335"
         d="m 51.385862,83.46235 v -6.35 h 8.202083 8.202084 l 0.01073,0.926042 c 0.0059,0.509323 0.01073,2.831041 0.01073,5.159375 0,2.328333 -0.0048,4.769114 -0.01073,5.423958 l -0.01073,1.190625 H 59.587945 51.385862 Z M 66.9841,88.158704 c -0.0086,-0.419344 -0.608283,-1.064562 -2.028832,-2.182812 -1.109159,-0.873125 -2.112186,-1.626013 -2.228948,-1.673084 -0.116763,-0.04707 -0.624138,0.228544 -1.127502,0.612478 -1.207389,0.92092 -2.269342,0.923291 -3.590084,0.008 -0.729491,-0.505537 -1.166181,-0.657016 -1.394996,-0.483895 -2.315962,1.752246 -4.434126,3.63185 -4.434126,3.93473 0,0.321073 1.146847,0.37988 7.408333,0.37988 h 7.408334 z M 54.42857,84.941409 c 0.727604,-0.576695 1.432726,-1.142103 1.566937,-1.256463 0.22289,-0.189923 -0.52366,-0.944316 -2.955999,-2.987056 l -0.859896,-0.722163 v 3.363208 c 0,3.162324 0.02766,3.341939 0.463021,3.007109 0.254661,-0.195855 1.058333,-0.827941 1.785937,-1.404635 z m 12.458588,-4.322207 c -0.153731,-0.153732 -3.330463,2.572332 -3.330463,2.857986 0,0.110034 0.744141,0.795306 1.653646,1.522825 l 1.653646,1.322763 0.07545,-2.787923 c 0.0415,-1.533357 0.01797,-2.8454 -0.05228,-2.915651 z m -3.261863,1.311682 c 1.779437,-1.569911 3.27459,-3.058192 3.322562,-3.307292 0.08066,-0.418831 -0.473312,-0.452909 -7.36256,-0.452909 -5.045971,0 -7.420149,0.0889 -7.357944,0.275514 0.05051,0.151533 1.638011,1.637736 3.527777,3.302674 2.200069,1.938322 3.651554,3.028821 4.035383,3.031778 0.389755,0.003 1.731175,-0.993855 3.834782,-2.849765 z"
         id="path1240"
         inkscape:connector-curvature="0" />
      <path
         style="fill:#555555;fill-opacity:1;stroke-width:0.26458335"
         d="m 51.385862,83.46235 v -6.35 h 8.202083 8.202084 l 0.01073,0.926042 c 0.0059,0.509323 0.01073,2.831041 0.01073,5.159375 0,2.328333 -0.0048,4.769114 -0.01073,5.423958 l -0.01073,1.190625 h -8.202084 -8.202083 z m 15.608934,4.696354 c -0.0011,-0.427847 -0.575531,-1.041886 -2.042137,-2.182812 -1.122361,-0.873125 -2.130201,-1.626013 -2.239645,-1.673084 -0.109444,-0.04707 -0.589466,0.209851 -1.066716,0.570938 -1.347979,1.019881 -2.431576,1.024958 -3.62946,0.017 -0.449877,-0.378547 -0.965028,-0.631529 -1.14478,-0.562184 -0.74851,0.288764 -4.692446,3.683573 -4.692446,4.039102 0,0.329543 1.089255,0.386348 7.408333,0.386348 h 7.408334 l -0.0015,-0.595313 z M 54.42857,84.941409 c 0.727604,-0.576695 1.441979,-1.15429 1.5875,-1.283545 0.169264,-0.150345 0.01383,-0.442366 -0.431457,-0.810575 -0.382822,-0.31656 -1.305556,-1.092666 -2.050521,-1.724681 l -1.35448,-1.149117 v 3.364327 c 0,3.163388 0.02765,3.343057 0.463021,3.008226 0.254661,-0.195855 1.058333,-0.827941 1.785937,-1.404635 z m 12.458588,-4.322207 c -0.153731,-0.153732 -3.330463,2.572332 -3.330463,2.857986 0,0.110034 0.744141,0.795306 1.653646,1.522825 l 1.653646,1.322763 0.07545,-2.787923 c 0.0415,-1.533357 0.01797,-2.8454 -0.05228,-2.915651 z m -3.261863,1.311682 c 1.779437,-1.569911 3.27459,-3.058192 3.322562,-3.307292 0.08066,-0.418805 -0.472075,-0.452909 -7.340511,-0.452909 -4.183841,0 -7.427734,0.10322 -7.427734,0.236347 0,0.495396 7.013659,6.368734 7.610901,6.373477 0.389873,0.0031 1.73054,-0.993153 3.834782,-2.849623 z"
         id="path1238"
         inkscape:connector-curvature="0" />
      <path
         style="fill:#515151;fill-opacity:1;stroke-width:0.26458335"
         d="m 51.385862,83.46235 v -6.35 h 8.202083 8.202084 l 0.01073,0.926042 c 0.0059,0.509323 0.01073,2.831041 0.01073,5.159375 0,2.328333 -0.0048,4.769114 -0.01073,5.423958 l -0.01073,1.190625 h -8.202084 -8.202083 z m 15.608934,4.696354 c -0.0011,-0.427847 -0.575531,-1.041886 -2.042137,-2.182812 -1.122361,-0.873125 -2.130201,-1.626013 -2.239645,-1.673084 -0.109444,-0.04707 -0.589466,0.209851 -1.066716,0.570938 -1.347979,1.019881 -2.431576,1.024958 -3.62946,0.017 -0.449877,-0.378547 -0.965028,-0.631529 -1.14478,-0.562184 -0.74851,0.288764 -4.692446,3.683573 -4.692446,4.039102 0,0.329543 1.089255,0.386348 7.408333,0.386348 h 7.408334 l -0.0015,-0.595313 z M 54.42857,84.941409 c 0.727604,-0.576695 1.441979,-1.15429 1.5875,-1.283545 0.169264,-0.150345 0.01383,-0.442366 -0.431457,-0.810575 -0.382822,-0.31656 -1.305556,-1.092666 -2.050521,-1.724681 l -1.35448,-1.149117 v 3.364327 c 0,3.163388 0.02765,3.343057 0.463021,3.008226 0.254661,-0.195855 1.058333,-0.827941 1.785937,-1.404635 z m 12.458588,-4.322207 c -0.153731,-0.153732 -3.330463,2.572332 -3.330463,2.857986 0,0.110034 0.744141,0.795306 1.653646,1.522825 l 1.653646,1.322763 0.07545,-2.787923 c 0.0415,-1.533357 0.01797,-2.8454 -0.05228,-2.915651 z m -3.403042,1.461743 c 1.713408,-1.487378 3.202762,-2.826831 3.309674,-2.976563 0.635727,-0.890345 0.301145,-0.933699 -7.205845,-0.933699 -4.172452,0 -7.408333,0.103234 -7.408333,0.236347 0,0.487809 7.012966,6.368729 7.600337,6.373477 0.371343,0.003 1.739686,-0.994234 3.704167,-2.699562 z"
         id="path1236"
         inkscape:connector-curvature="0" />
      <path
         style="fill:#4c4c4c;fill-opacity:1;stroke-width:0.26458335"
         d="m 51.385862,83.46235 v -6.35 h 8.202083 8.202084 l 0.01264,0.992188 c 0.0111,0.871435 0.0064,7.442086 -0.0076,10.583333 l -0.005,1.124479 h -8.202084 -8.202083 z m 15.608934,4.696354 c -0.0011,-0.427847 -0.575531,-1.041886 -2.042137,-2.182812 -1.122361,-0.873125 -2.130201,-1.626013 -2.239645,-1.673084 -0.109444,-0.04707 -0.600705,0.220819 -1.091691,0.595312 -1.192698,0.909715 -2.517812,0.907006 -3.604485,-0.0074 -0.449877,-0.378548 -0.965028,-0.63153 -1.14478,-0.562185 -0.74851,0.288764 -4.692446,3.683573 -4.692446,4.039102 0,0.329543 1.089255,0.386348 7.408333,0.386348 h 7.408334 l -0.0015,-0.595313 z M 54.42857,84.941409 c 0.727604,-0.576695 1.441979,-1.15429 1.5875,-1.283545 0.169264,-0.150345 0.01383,-0.442366 -0.431457,-0.810575 -0.382822,-0.31656 -1.305556,-1.092666 -2.050521,-1.724681 l -1.35448,-1.149117 v 3.364327 c 0,3.163388 0.02765,3.343057 0.463021,3.008226 0.254661,-0.195855 1.058333,-0.827941 1.785937,-1.404635 z m 12.458588,-4.322207 c -0.153731,-0.153732 -3.330463,2.572332 -3.330463,2.857986 0,0.110034 0.744141,0.795306 1.653646,1.522825 l 1.653646,1.322763 0.07545,-2.787923 c 0.0415,-1.533357 0.01797,-2.8454 -0.05228,-2.915651 z m -5.522482,3.306169 c 3.873621,-3.326274 5.510565,-4.87519 5.583859,-5.283586 0.07943,-0.442566 -0.365307,-0.471102 -7.342188,-0.471102 -4.183254,0 -7.426735,0.10322 -7.426735,0.236347 0,0.485811 7.012787,6.368727 7.597564,6.373477 0.322359,0.0026 1.036734,-0.382193 1.5875,-0.855136 z"
         id="path1234"
         inkscape:connector-curvature="0" />
      <path
         style="fill:#484848;fill-opacity:1;stroke-width:0.26458335"
         d="m 51.385862,83.46235 v -6.35 h 8.202083 8.202084 l 0.01264,0.992188 c 0.0111,0.871435 0.0064,7.442086 -0.0076,10.583333 l -0.005,1.124479 h -8.202084 -8.202083 z m 15.610417,4.69591 c 0,-0.430461 -0.587032,-1.054444 -2.115781,-2.248958 -1.163679,-0.909261 -2.183655,-1.653202 -2.266612,-1.653202 -0.08296,0 -0.541078,0.297656 -1.018048,0.661458 -1.170533,0.89281 -2.501335,0.879988 -3.588227,-0.03457 -0.61753,-0.519618 -0.952233,-0.636973 -1.320558,-0.463021 -0.96332,0.454953 -4.507441,3.553344 -4.507441,3.940557 0,0.3389 1.027831,0.393494 7.408333,0.393494 h 7.408334 z M 55.354612,84.252783 56.280654,83.47102 55.22232,82.538337 C 54.640237,82.025361 53.717502,81.2395 53.171799,80.791978 l -0.992187,-0.813677 v 3.345965 3.345964 l 1.124479,-0.817842 c 0.618464,-0.449813 1.541198,-1.169635 2.050521,-1.599605 z m 11.532546,-3.633581 c -0.153731,-0.153732 -3.330463,2.572332 -3.330463,2.857986 0,0.110034 0.744141,0.795306 1.653646,1.522825 l 1.653646,1.322763 0.07545,-2.787923 c 0.0415,-1.533357 0.01797,-2.8454 -0.05228,-2.915651 z m -5.522482,3.306169 c 3.873621,-3.326274 5.510565,-4.87519 5.583859,-5.283586 0.07943,-0.442566 -0.365307,-0.471102 -7.342188,-0.471102 -4.084704,0 -7.426735,0.103943 -7.426735,0.230984 0,0.489715 7.012367,6.3836 7.595015,6.3836 0.32376,0 1.039283,-0.386953 1.590049,-0.859896 z"
         id="path1232"
         inkscape:connector-curvature="0" />
      <path
         style="fill:#444444;fill-opacity:1;stroke-width:0.26458335"
         d="m 51.385862,83.46235 v -6.35 h 8.202083 8.202084 l 0.0074,1.058333 c 0.004,0.582084 0.0073,2.903802 0.0073,5.159375 0,2.255573 -0.0033,4.636823 -0.0073,5.291667 l -0.0074,1.190625 h -8.202084 -8.202083 z m 15.610417,4.69591 c 0,-0.430461 -0.587032,-1.054444 -2.115781,-2.248958 -1.163679,-0.909261 -2.183655,-1.653202 -2.266612,-1.653202 -0.08296,0 -0.541078,0.297656 -1.018048,0.661458 -1.170533,0.89281 -2.501335,0.879988 -3.588227,-0.03457 -0.61753,-0.519618 -0.952233,-0.636973 -1.320558,-0.463021 -0.96332,0.454953 -4.507441,3.553344 -4.507441,3.940557 0,0.3389 1.027831,0.393494 7.408333,0.393494 h 7.408334 z M 55.354612,84.252783 56.280654,83.47102 55.22232,82.538337 C 54.640237,82.025361 53.717502,81.2395 53.171799,80.791978 l -0.992187,-0.813677 v 3.345965 3.345964 l 1.124479,-0.817842 c 0.618464,-0.449813 1.541198,-1.169635 2.050521,-1.599605 z m 11.530247,-3.63588 c -0.07152,-0.07152 -0.905798,0.551059 -1.853961,1.3835 l -1.723933,1.513529 1.778511,1.396017 1.778511,1.396017 0.07545,-2.779518 c 0.0415,-1.528734 0.01694,-2.83803 -0.05458,-2.909545 z m -4.3262,2.280349 c 4.07335,-3.513812 4.43762,-3.866531 4.43762,-4.296904 0,-0.386267 -0.748267,-0.429665 -7.408334,-0.429665 -4.128327,0 -7.408333,0.103813 -7.408333,0.234476 0,0.500182 6.995905,6.380108 7.591018,6.380108 0.362295,0 1.465068,-0.746783 2.788029,-1.888015 z"
         id="path1230"
         inkscape:connector-curvature="0" />
      <path
         style="fill:#404040;fill-opacity:1;stroke-width:0.26458335"
         d="m 51.385862,83.46235 v -6.35 h 8.202083 8.202084 l 0.0074,1.058333 c 0.004,0.582084 0.0073,2.903802 0.0073,5.159375 0,2.255573 -0.0033,4.636823 -0.0073,5.291667 l -0.0074,1.190625 h -8.202084 -8.202083 z m 15.609855,4.696354 C 66.99532,87.731249 66.405166,87.097122 64.902732,85.909746 63.7519,85.000241 62.732178,84.2561 62.636683,84.2561 c -0.09549,0 -0.563875,0.297656 -1.040845,0.661458 -1.170533,0.89281 -2.501335,0.879988 -3.588227,-0.03457 -0.61753,-0.519618 -0.952233,-0.636973 -1.320558,-0.463021 -0.96332,0.454953 -4.507441,3.553344 -4.507441,3.940557 0,0.3389 1.027831,0.393494 7.408333,0.393494 h 7.408334 l -5.56e-4,-0.595313 z M 54.494716,84.951018 c 0.909505,-0.725472 1.653587,-1.386972 1.653516,-1.47 -1.21e-4,-0.140846 -1.987102,-1.922652 -3.361548,-3.014434 L 52.179612,79.98436 v 3.34211 c 0,2.603571 0.07308,3.298077 0.330729,3.142849 0.181901,-0.109594 1.07487,-0.792829 1.984375,-1.518301 z m 12.384851,-4.339407 c -0.07443,-0.07443 -0.915125,0.549311 -1.86822,1.386082 l -1.7329,1.521401 1.79277,1.398389 1.79277,1.398389 0.07545,-2.784471 c 0.0415,-1.531458 0.01456,-2.845364 -0.05987,-2.91979 z m -4.320908,2.285641 c 4.284735,-3.696159 4.483737,-3.894825 4.389838,-4.382404 -0.08571,-0.445062 -0.569487,-0.476456 -7.342127,-0.476456 -5.059048,0 -7.279833,0.08839 -7.347854,0.292455 -0.155255,0.465762 6.814773,6.45442 7.512114,6.45442 0.362295,0 1.465068,-0.746783 2.788029,-1.888015 z"
         id="path1228"
         inkscape:connector-curvature="0" />
      <path
         style="fill:#3b3b3b;fill-opacity:1;stroke-width:0.26458335"
         d="m 51.385862,83.46235 v -6.35 h 8.202083 8.202084 l 0.0074,1.058333 c 0.004,0.582084 0.0073,2.903802 0.0073,5.159375 0,2.255573 -0.0033,4.636823 -0.0073,5.291667 l -0.0074,1.190625 h -8.202084 -8.202083 z m 15.609855,4.696354 C 66.99532,87.731249 66.405166,87.097122 64.902732,85.909746 63.7519,85.000241 62.732178,84.2561 62.636683,84.2561 c -0.09549,0 -0.563875,0.297656 -1.040845,0.661458 -1.170533,0.89281 -2.501335,0.879988 -3.588227,-0.03457 -0.61753,-0.519618 -0.952233,-0.636973 -1.320558,-0.463021 -0.96332,0.454953 -4.507441,3.553344 -4.507441,3.940557 0,0.3389 1.027831,0.393494 7.408333,0.393494 h 7.408334 l -5.56e-4,-0.595313 z M 54.494716,84.951018 c 0.909505,-0.725472 1.653646,-1.3981 1.653646,-1.494729 0,-0.156802 -1.71281,-1.680115 -3.361617,-2.989705 L 52.179612,79.98436 v 3.34211 c 0,2.603571 0.07308,3.298077 0.330729,3.142849 0.181901,-0.109594 1.07487,-0.792829 1.984375,-1.518301 z M 66.996279,83.30281 v -3.069956 l -1.855955,1.645428 -1.855955,1.645429 1.789809,1.413324 c 0.984395,0.777328 1.819575,1.418366 1.855955,1.424528 0.03638,0.0062 0.06615,-1.370277 0.06615,-3.058753 z m -3.348693,-1.3431 c 4.683591,-4.114459 4.882459,-3.921318 -4.037592,-3.921318 -5.200449,0 -7.282494,0.0855 -7.354671,0.302034 -0.162309,0.486926 6.816088,6.444841 7.548725,6.444841 0.419856,0 1.690221,-0.933903 3.843538,-2.825557 z"
         id="path1226"
         inkscape:connector-curvature="0" />
      <path
         style="fill:#373737;fill-opacity:1;stroke-width:0.26458335"
         d="M 51.385862,83.330058 V 77.11235 h 8.202083 8.202084 l 0.0074,1.058333 c 0.004,0.582084 0.0073,2.903802 0.0073,5.159375 0,2.255573 -0.0033,4.577292 -0.0073,5.159375 l -0.0074,1.058334 h -8.202084 -8.202083 z m 15.609855,4.828646 C 66.99532,87.731249 66.405166,87.097122 64.902732,85.909746 63.7519,85.000241 62.732178,84.2561 62.636683,84.2561 c -0.09549,0 -0.563875,0.297656 -1.040845,0.661458 -1.170533,0.89281 -2.501335,0.879988 -3.588227,-0.03457 -0.61753,-0.519618 -0.952233,-0.636973 -1.320558,-0.463021 -0.96332,0.454953 -4.507441,3.553344 -4.507441,3.940557 0,0.3389 1.027831,0.393494 7.408333,0.393494 h 7.408334 l -5.56e-4,-0.595313 z M 54.494716,84.951018 c 0.909505,-0.725472 1.653646,-1.3981 1.653646,-1.494729 0,-0.156802 -1.71281,-1.680115 -3.361617,-2.989705 L 52.179612,79.98436 v 3.34211 c 0,2.603571 0.07308,3.298077 0.330729,3.142849 0.181901,-0.109594 1.07487,-0.792829 1.984375,-1.518301 z M 66.996279,83.30281 v -3.069956 l -1.852573,1.64243 -1.852573,1.64243 1.786427,1.426052 c 0.982535,0.784328 1.816193,1.426715 1.852573,1.427526 0.03638,8.11e-4 0.06615,-1.380006 0.06615,-3.068482 z m -3.307292,-1.35435 c 4.620477,-4.106529 4.825426,-3.910068 -4.078993,-3.910068 -5.200449,0 -7.282494,0.0855 -7.354671,0.302034 -0.05537,0.166118 1.479332,1.684165 3.410455,3.373437 2.524331,2.208187 3.699026,3.0693 4.179671,3.063919 0.468952,-0.0053 1.616408,-0.849922 3.843538,-2.829322 z"
         id="path1224"
         inkscape:connector-curvature="0" />
      <path
         style="fill:#333333;fill-opacity:1;stroke-width:0.26458335"
         d="M 51.385862,83.330058 V 77.11235 h 8.202083 8.202084 l 0.0074,1.058333 c 0.004,0.582084 0.0073,2.903802 0.0073,5.159375 0,2.255573 -0.0033,4.577292 -0.0073,5.159375 l -0.0074,1.058334 h -8.202084 -8.202083 z m 15.609855,4.828646 C 66.99532,87.731249 66.405166,87.097122 64.902732,85.909746 63.7519,85.000241 62.745409,84.2561 62.666086,84.2561 c -0.07932,0 -0.582845,0.297656 -1.118938,0.661458 -1.277418,0.86688 -2.479067,0.857755 -3.53031,-0.02681 -0.45249,-0.380744 -0.994315,-0.620591 -1.212664,-0.536803 -0.888405,0.340913 -4.596377,3.507651 -4.609939,3.937049 -0.01359,0.430296 0.508973,0.463021 7.39371,0.463021 h 7.408334 l -5.56e-4,-0.595313 z M 54.494716,84.951018 c 0.909505,-0.725472 1.653646,-1.3981 1.653646,-1.494729 0,-0.156802 -1.71281,-1.680115 -3.361617,-2.989705 L 52.179612,79.98436 v 3.34211 c 0,2.603571 0.07308,3.298077 0.330729,3.142849 0.181901,-0.109594 1.07487,-0.792829 1.984375,-1.518301 z M 66.996279,83.30281 v -3.069956 l -1.852573,1.64243 -1.852573,1.64243 1.786427,1.426052 c 0.982535,0.784328 1.816193,1.426715 1.852573,1.427526 0.03638,8.11e-4 0.06615,-1.380006 0.06615,-3.068482 z m -3.307292,-1.337663 c 4.659725,-4.107889 4.86545,-3.910562 -4.167188,-3.997087 -6.266667,-0.06003 -7.342187,-0.01418 -7.342187,0.312955 0,0.210807 1.574392,1.760502 3.49865,3.443768 2.52668,2.210242 3.684378,3.057549 4.167187,3.049922 0.464464,-0.0073 1.637721,-0.864968 3.843538,-2.809558 z"
         id="path1222"
         inkscape:connector-curvature="0" />
    </g>
  </g>
</svg>
