<?xml version="1.0" encoding="UTF-8" standalone="no"?>
<!-- Created with Inkscape (http://www.inkscape.org/) -->

<svg
   xmlns:dc="http://purl.org/dc/elements/1.1/"
   xmlns:cc="http://creativecommons.org/ns#"
   xmlns:rdf="http://www.w3.org/1999/02/22-rdf-syntax-ns#"
   xmlns:svg="http://www.w3.org/2000/svg"
   xmlns="http://www.w3.org/2000/svg"
   xmlns:sodipodi="http://sodipodi.sourceforge.net/DTD/sodipodi-0.dtd"
   xmlns:inkscape="http://www.inkscape.org/namespaces/inkscape"
   width="10.08507mm"
   height="15.927795mm"
   viewBox="0 0 10.08507 15.927795"
   version="1.1"
   id="svg1700"
   sodipodi:docname="location.svg"
   inkscape:version="0.92.4 (5da689c313, 2019-01-14)">
  <defs
     id="defs1694" />
  <sodipodi:namedview
     id="base"
     pagecolor="#ffffff"
     bordercolor="#666666"
     borderopacity="1.0"
     inkscape:pageopacity="0.0"
     inkscape:pageshadow="2"
     inkscape:zoom="3.959798"
     inkscape:cx="-11.082778"
     inkscape:cy="39.684633"
     inkscape:document-units="mm"
     inkscape:current-layer="layer1"
     showgrid="false"
     inkscape:window-width="1920"
     inkscape:window-height="1001"
     inkscape:window-x="-9"
     inkscape:window-y="-9"
     inkscape:window-maximized="1" />
  <metadata
     id="metadata1697">
    <rdf:RDF>
      <cc:Work
         rdf:about="">
        <dc:format>image/svg+xml</dc:format>
        <dc:type
           rdf:resource="http://purl.org/dc/dcmitype/StillImage" />
        <dc:title></dc:title>
      </cc:Work>
    </rdf:RDF>
  </metadata>
  <g
     inkscape:label="Layer 1"
     inkscape:groupmode="layer"
     id="layer1"
     transform="translate(-31.416061,-54.278997)">
    <g
       id="g1315"
       transform="translate(4.5608531,-46.792708)">
      <path
         style="fill:#dddddd;fill-opacity:1;stroke-width:0.26458335"
         d="m 29.286371,112.20081 c -2.170379,-4.24069 -2.431163,-4.90209 -2.431163,-6.16591 0,-2.82637 2.177566,-4.93963 5.103769,-4.95305 2.882377,-0.0132 4.950397,2.13083 4.950397,5.13238 0,0.96542 -0.445103,2.07599 -2.389336,5.96162 -1.314135,2.62636 -2.482299,4.77519 -2.595921,4.77519 -0.113621,0 -1.300607,-2.1376 -2.637746,-4.75023 z m 4.424688,-1.65622 c 1.749472,-3.71684 1.973836,-4.82407 1.25802,-6.20831 -0.567187,-1.09681 -1.609918,-1.71822 -2.916346,-1.73797 -1.39036,-0.021 -2.692689,0.64627 -3.208672,1.64407 -0.738468,1.42804 -0.513669,2.55993 1.249722,6.29248 0.910919,1.92813 1.727208,3.50571 1.813975,3.50573 0.08677,2e-5 0.898253,-1.57318 1.803301,-3.496 z m -2.357935,-3.45976 c -0.949271,-0.48201 -0.923494,-1.77502 0.04464,-2.23904 0.839928,-0.40256 1.968088,-0.0161 2.213893,0.75833 0.163865,0.51629 -0.276461,1.55734 -0.658699,1.55734 -0.128499,0 -0.392201,0.0583 -0.586004,0.12962 -0.193802,0.0713 -0.650025,-0.0215 -1.013827,-0.20625 z"
         id="path1397"
         inkscape:connector-curvature="0" />
      <path
         style="fill:#d9d9d9;fill-opacity:1;stroke-width:0.26458335"
         d="m 29.271825,112.144 c -2.413646,-4.6902 -2.471104,-4.84397 -2.363898,-6.32607 0.205327,-2.83861 2.194597,-4.73026 4.974364,-4.73026 2.773863,0 4.769089,1.89237 4.973407,4.71703 0.105512,1.45869 0.03293,1.6566 -2.320166,6.32607 -1.335996,2.65115 -2.510276,4.82027 -2.609509,4.82027 -0.09923,0 -1.293623,-2.16317 -2.654198,-4.80704 z m 4.44016,-1.58013 c 1.053845,-2.22858 1.648915,-3.82687 1.657542,-4.45197 0.02776,-2.0113 -1.417255,-3.53766 -3.34679,-3.53518 -1.371802,0.002 -2.670023,0.68204 -3.178676,1.66566 -0.735785,1.42285 -0.513068,2.56153 1.23077,6.29252 0.901205,1.92815 1.71832,3.50573 1.815812,3.50573 0.09749,0 0.917096,-1.56454 1.821342,-3.47676 z m -2.358861,-3.47904 c -0.949271,-0.48201 -0.923494,-1.77502 0.04464,-2.23904 0.839928,-0.40256 1.968088,-0.0161 2.213893,0.75833 0.163865,0.51629 -0.276461,1.55734 -0.658699,1.55734 -0.128499,0 -0.392201,0.0583 -0.586004,0.12962 -0.193802,0.0713 -0.650025,-0.0215 -1.013827,-0.20625 z"
         id="path1395"
         inkscape:connector-curvature="0" />
      <path
         style="fill:#d5d5d5;fill-opacity:1;stroke-width:0.26458335"
         d="m 29.265129,112.11289 c -2.43056,-4.73206 -2.482159,-4.8705 -2.360803,-6.3339 0.23381,-2.81944 2.220066,-4.69132 4.977965,-4.69132 2.776881,0 4.769063,1.892 4.973895,4.72378 0.106271,1.46918 0.03941,1.65062 -2.331194,6.32608 -1.342331,2.64743 -2.51584,4.81344 -2.607798,4.81334 -0.09196,-9e-5 -1.285387,-2.17718 -2.652065,-4.83798 z m 4.464743,-1.56547 c 1.082972,-2.27324 1.664161,-3.82431 1.664161,-4.44128 0,-1.20632 -0.633441,-2.43567 -1.571836,-3.05053 -1.5137,-0.99181 -4.18028,-0.35611 -4.978136,1.18677 -0.735785,1.42285 -0.513068,2.56153 1.23077,6.29252 0.901205,1.92815 1.717827,3.50573 1.814716,3.50573 0.09689,0 0.925036,-1.57195 1.840325,-3.49321 z m -2.376748,-3.46259 c -0.949271,-0.48201 -0.923494,-1.77502 0.04464,-2.23904 0.839928,-0.40256 1.968088,-0.0161 2.213893,0.75833 0.163865,0.51629 -0.276461,1.55734 -0.658699,1.55734 -0.128499,0 -0.392201,0.0583 -0.586004,0.12962 -0.193802,0.0713 -0.650025,-0.0215 -1.013827,-0.20625 z"
         id="path1393"
         inkscape:connector-curvature="0" />
      <path
         style="fill:#d1d1d1;fill-opacity:1;stroke-width:0.26458335"
         d="m 29.302603,112.19448 c -2.067547,-4.0166 -2.447395,-4.94796 -2.447395,-6.00086 0,-2.74226 1.906762,-4.83658 4.60733,-5.06053 2.981989,-0.24729 5.174947,1.65485 5.393648,4.67836 0.106271,1.46918 0.03941,1.65062 -2.331194,6.32608 -1.342331,2.64743 -2.51584,4.81305 -2.607798,4.81249 -0.09196,-5.6e-4 -1.268523,-2.14056 -2.614591,-4.75554 z m 4.423852,-1.61874 c 1.782861,-3.70443 1.998096,-4.77853 1.248147,-6.22877 -0.230687,-0.4461 -0.749269,-1.02721 -1.152405,-1.29136 -1.5137,-0.99181 -4.18028,-0.35611 -4.978136,1.18677 -0.745732,1.44209 -0.513618,2.64144 1.226826,6.3391 0.895498,1.90253 1.709136,3.45915 1.808084,3.45915 0.09895,0 0.930316,-1.5592 1.847484,-3.46489 z m -2.373331,-3.49091 c -0.949271,-0.48201 -0.923494,-1.77502 0.04464,-2.23904 0.839928,-0.40256 1.968088,-0.0161 2.213893,0.75833 0.163865,0.51629 -0.276461,1.55734 -0.658699,1.55734 -0.128499,0 -0.392201,0.0583 -0.586004,0.12962 -0.193802,0.0713 -0.650025,-0.0215 -1.013827,-0.20625 z"
         id="path1391"
         inkscape:connector-curvature="0" />
      <path
         style="fill:#cccccc;fill-opacity:1;stroke-width:0.26458335"
         d="m 29.265546,112.10646 c -2.427276,-4.73002 -2.481607,-4.87576 -2.360803,-6.3325 0.245828,-2.96435 2.467868,-4.8838 5.374654,-4.64275 2.72551,0.22602 4.629977,2.30941 4.629977,5.06494 0,1.05175 -0.382366,1.99912 -2.422399,6.00189 -1.332319,2.61415 -2.493179,4.7523 -2.579687,4.75143 -0.08651,-8.7e-4 -1.275292,-2.18022 -2.641742,-4.84301 z m 4.45512,-1.498 c 1.80583,-3.70385 2.017715,-4.78451 1.234907,-6.29829 -0.594407,-1.14946 -1.572697,-1.73509 -2.895704,-1.73345 -2.204323,0.003 -3.693548,1.4532 -3.664348,3.569 0.0093,0.67194 0.564884,2.15919 1.663179,4.45196 0.907089,1.89362 1.725606,3.44295 1.818926,3.44295 0.09332,0 0.922688,-1.54448 1.84304,-3.43217 z m -2.367542,-3.52486 c -0.479754,-0.24272 -0.661458,-0.54839 -0.661458,-1.11276 0,-1.00155 0.91124,-1.52508 1.996195,-1.14686 1.277207,0.44523 1.33504,1.73594 0.102936,2.29733 -0.799224,0.36415 -0.634832,0.36846 -1.437673,-0.0377 z"
         id="path1389"
         inkscape:connector-curvature="0" />
      <path
         style="fill:#c8c8c8;fill-opacity:1;stroke-width:0.26458335"
         d="m 29.265546,112.10646 c -2.427276,-4.73002 -2.481607,-4.87576 -2.360803,-6.3325 0.245828,-2.96435 2.467868,-4.8838 5.374654,-4.64275 2.72551,0.22602 4.629977,2.30941 4.629977,5.06494 0,1.05175 -0.382366,1.99912 -2.422399,6.00189 -1.332319,2.61415 -2.493179,4.7523 -2.579687,4.75143 -0.08651,-8.7e-4 -1.275292,-2.18022 -2.641742,-4.84301 z m 4.45512,-1.498 c 1.80583,-3.70385 2.017715,-4.78451 1.234907,-6.29829 -0.594407,-1.14946 -1.572697,-1.73509 -2.895704,-1.73345 -2.178355,0.003 -3.68932,1.45213 -3.68932,3.53908 0,0.63113 0.569053,2.14568 1.668702,4.44128 0.917786,1.91595 1.745055,3.48355 1.838375,3.48355 0.09332,0 0.922688,-1.54448 1.84304,-3.43217 z m -2.367542,-3.52486 c -0.479754,-0.24272 -0.661458,-0.54839 -0.661458,-1.11276 0,-1.00155 0.91124,-1.52508 1.996195,-1.14686 1.277207,0.44523 1.33504,1.73594 0.102936,2.29733 -0.799224,0.36415 -0.634832,0.36846 -1.437673,-0.0377 z"
         id="path1387"
         inkscape:connector-curvature="0" />
      <path
         style="fill:#c4c4c4;fill-opacity:1;stroke-width:0.26458335"
         d="m 29.412661,112.41694 c -2.736871,-5.29513 -3.024146,-6.5056 -2.030891,-8.55739 1.639582,-3.38693 6.601545,-3.73653 8.670014,-0.61086 0.486906,0.73577 0.727911,1.50527 0.804932,2.57009 0.107155,1.4814 0.04767,1.64153 -2.349865,6.32607 -1.352891,2.64341 -2.526639,4.8035 -2.608327,4.80021 -0.08169,-0.003 -1.200327,-2.04094 -2.485863,-4.52812 z m 4.251004,-1.74975 c 0.889002,-1.85539 1.688777,-3.70562 1.777278,-4.11163 0.213013,-0.97721 -0.652469,-2.91548 -1.570387,-3.51692 -1.534482,-1.00543 -4.235436,-0.326 -5.062574,1.27351 -0.771181,1.4913 -0.563698,2.5466 1.23243,6.26835 0.918424,1.90307 1.745693,3.46013 1.838375,3.46013 0.09268,0 0.895877,-1.51805 1.784878,-3.37344 z m -2.310541,-3.58359 c -0.479754,-0.24272 -0.661458,-0.54839 -0.661458,-1.11276 0,-1.00155 0.91124,-1.52508 1.996195,-1.14686 1.277207,0.44523 1.33504,1.73594 0.102936,2.29733 -0.799224,0.36415 -0.634832,0.36846 -1.437673,-0.0377 z"
         id="path1385"
         inkscape:connector-curvature="0" />
      <path
         style="fill:#c0c0c0;fill-opacity:1;stroke-width:0.26458335"
         d="m 29.368749,112.32263 c -2.265046,-4.39299 -2.38125,-4.7005 -2.38125,-6.30145 0,-1.42109 0.117858,-1.85316 0.75714,-2.77564 2.140137,-3.08822 6.994097,-2.7822 8.603515,0.54241 1.055701,2.18079 0.853088,3.09234 -1.869943,8.41286 -1.337139,2.61263 -2.497999,4.74797 -2.579687,4.74521 -0.08169,-0.003 -1.220087,-2.08329 -2.529775,-4.62339 z m 4.359935,-1.73061 c 1.975191,-4.05123 2.13808,-5.17977 0.968876,-6.71267 -1.040983,-1.3648 -2.447541,-1.73072 -4.069231,-1.05863 -0.813327,0.33708 -1.408632,0.81028 -1.745948,1.38784 -0.871306,1.49189 -0.67451,2.57474 1.158031,6.37194 0.918424,1.90307 1.745693,3.46013 1.838375,3.46013 0.09268,0 0.925135,-1.55188 1.849897,-3.44861 z m -2.37556,-3.50842 c -0.479754,-0.24272 -0.661458,-0.54839 -0.661458,-1.11276 0,-1.00155 0.91124,-1.52508 1.996195,-1.14686 1.277207,0.44523 1.33504,1.73594 0.102936,2.29733 -0.799224,0.36415 -0.634832,0.36846 -1.437673,-0.0377 z"
         id="path1383"
         inkscape:connector-curvature="0" />
      <path
         style="fill:#bbbbbb;fill-opacity:1;stroke-width:0.26458335"
         d="m 29.368749,112.32263 c -2.265046,-4.39299 -2.38125,-4.7005 -2.38125,-6.30145 0,-1.42109 0.117858,-1.85316 0.75714,-2.77564 2.718908,-3.923387 8.765549,-2.21747 9.111894,2.5707 0.107389,1.48464 0.04908,1.64167 -2.349682,6.32861 -1.352891,2.64341 -2.526639,4.80393 -2.608327,4.80117 -0.08169,-0.003 -1.220087,-2.08329 -2.529775,-4.62339 z m 4.359935,-1.73061 c 1.975191,-4.05123 2.13808,-5.17977 0.968876,-6.71267 -1.040983,-1.3648 -2.447541,-1.73072 -4.069231,-1.05863 -0.813327,0.33708 -1.408632,0.81028 -1.745948,1.38784 -0.881783,1.50983 -0.679656,2.62352 1.161535,6.3999 0.920352,1.88769 1.747621,3.43217 1.838375,3.43217 0.09075,0 0.921631,-1.55188 1.846393,-3.44861 z m -2.706289,-3.71634 c -1.030246,-0.60006 -0.227775,-2.09547 1.124479,-2.09547 0.799953,0 1.5875,0.59066 1.5875,1.19063 0,0.98066 -1.641493,1.52834 -2.711979,0.90484 z"
         id="path1381"
         inkscape:connector-curvature="0" />
      <path
         style="fill:#b7b7b7;fill-opacity:1;stroke-width:0.26458335"
         d="m 29.368749,112.30993 c -2.258387,-4.39137 -2.38125,-4.71648 -2.38125,-6.30105 0,-1.40756 0.119286,-1.84292 0.75714,-2.76334 2.718908,-3.923387 8.765549,-2.21747 9.111894,2.5707 0.107389,1.48464 0.04908,1.64167 -2.349682,6.32861 -1.352891,2.64341 -2.526639,4.80375 -2.608327,4.80077 -0.08169,-0.003 -1.220087,-2.08904 -2.529775,-4.63569 z m 4.359935,-1.71791 c 1.970497,-4.0416 2.136981,-5.18121 0.97875,-6.69973 -1.198575,-1.57141 -3.301627,-1.85451 -4.977862,-0.67009 -0.866009,0.61191 -1.609332,2.39258 -1.400507,3.35498 0.191379,0.88199 3.324702,7.46345 3.553226,7.46345 0.09075,0 0.921631,-1.55188 1.846393,-3.44861 z m -2.706289,-3.71634 c -1.030246,-0.60006 -0.227775,-2.09547 1.124479,-2.09547 0.799953,0 1.5875,0.59066 1.5875,1.19063 0,0.98066 -1.641493,1.52834 -2.711979,0.90484 z"
         id="path1379"
         inkscape:connector-curvature="0" />
      <path
         style="fill:#b3b3b3;fill-opacity:1;stroke-width:0.26458335"
         d="m 29.368749,112.29512 c -2.250165,-4.38944 -2.38125,-4.73631 -2.38125,-6.30109 0,-1.39122 0.121037,-1.83059 0.75714,-2.74849 2.7002,-3.89639 8.720185,-2.23494 9.11412,2.5154 0.119661,1.44295 0.05732,1.61146 -2.344311,6.33624 -1.356983,2.66962 -2.534113,4.85144 -2.615845,4.84848 -0.08173,-0.003 -1.220166,-2.09571 -2.529854,-4.65054 z m 4.359935,-1.7031 c 1.970497,-4.0416 2.136981,-5.18121 0.97875,-6.69973 -1.198575,-1.57141 -3.301627,-1.85451 -4.977862,-0.67009 -0.920636,0.65051 -1.632076,2.43988 -1.396994,3.51362 0.199101,0.9094 3.316929,7.30481 3.56117,7.30481 0.08445,0 0.910174,-1.55188 1.834936,-3.44861 z m -2.706289,-3.71634 c -1.030246,-0.60006 -0.227775,-2.09547 1.124479,-2.09547 0.799953,0 1.5875,0.59066 1.5875,1.19063 0,0.98066 -1.641493,1.52834 -2.711979,0.90484 z"
         id="path1377"
         inkscape:connector-curvature="0" />
      <path
         style="fill:#aeaeae;fill-opacity:1;stroke-width:0.26458335"
         d="m 29.368749,112.29512 c -2.250165,-4.38944 -2.38125,-4.73631 -2.38125,-6.30109 0,-1.39122 0.121037,-1.83059 0.75714,-2.74849 2.046739,-2.95345 6.326091,-2.861 8.384987,0.18114 0.516165,0.76266 0.647457,1.29274 0.647457,2.61401 0,1.5661 -0.130597,1.9121 -2.371826,6.28386 -1.304503,2.54457 -2.435597,4.62407 -2.513541,4.62111 -0.07794,-0.003 -1.213279,-2.09571 -2.522967,-4.65054 z m 4.381983,-1.74851 c 1.974261,-4.04953 2.127491,-5.11933 0.95368,-6.65828 -1.252004,-1.64146 -3.357297,-1.85786 -5.128954,-0.5272 -0.918492,0.68987 -1.540756,2.33144 -1.269986,3.35032 0.222454,0.83706 3.398055,7.32918 3.58505,7.32918 0.08623,0 0.923322,-1.57231 1.86021,-3.49402 z m -2.728337,-3.67093 c -1.030246,-0.60006 -0.227775,-2.09547 1.124479,-2.09547 0.799953,0 1.5875,0.59066 1.5875,1.19063 0,0.98066 -1.641493,1.52834 -2.711979,0.90484 z"
         id="path1375"
         inkscape:connector-curvature="0" />
      <path
         style="fill:#aaaaaa;fill-opacity:1;stroke-width:0.26458335"
         d="m 29.368749,112.25258 c -2.22391,-4.38295 -2.38125,-4.79947 -2.38125,-6.30377 0,-1.34146 0.126568,-1.79335 0.75714,-2.70327 2.046739,-2.95345 6.326091,-2.861 8.384987,0.18114 0.515923,0.76231 0.647457,1.29288 0.647457,2.61167 0,1.56423 -0.130459,1.90894 -2.378176,6.28386 -1.307997,2.54586 -2.439091,4.62762 -2.513542,4.62613 -0.07445,-0.001 -1.206928,-2.11458 -2.516616,-4.69576 z m 4.381983,-1.70597 c 1.344927,-2.75867 1.69802,-3.73631 1.677707,-4.64527 -0.06611,-2.95808 -3.403666,-4.41832 -5.844115,-2.5569 -0.926843,0.70694 -1.549859,2.34724 -1.278852,3.36701 0.222454,0.83706 3.398055,7.32918 3.58505,7.32918 0.08623,0 0.923322,-1.57231 1.86021,-3.49402 z m -2.775584,-3.80092 c -0.828124,-0.82813 -0.162881,-1.96548 1.149618,-1.96548 0.711635,0 1.609608,0.68988 1.609608,1.2366 0,0.96571 -1.995307,1.4928 -2.759226,0.72888 z"
         id="path1373"
         inkscape:connector-curvature="0" />
      <path
         style="fill:#a6a6a6;fill-opacity:1;stroke-width:0.26458335"
         d="m 29.402478,112.31887 c -3.0737,-6.058 -3.232639,-7.49429 -1.075113,-9.71557 1.144347,-1.17816 2.406906,-1.62862 4.106903,-1.46527 1.669304,0.16039 2.956891,1.05835 3.838273,2.67677 1.123986,2.06391 0.885379,3.13641 -1.907127,8.57218 -1.289576,2.51024 -2.405598,4.56285 -2.480049,4.56136 -0.07445,-0.001 -1.19175,-2.08475 -2.482887,-4.62947 z m 4.340024,-1.73452 c 1.382288,-2.79119 1.706713,-3.68508 1.685937,-4.64527 -0.06481,-2.99516 -3.385871,-4.46963 -5.844115,-2.59464 -0.926843,0.70694 -1.549859,2.34724 -1.278852,3.36701 0.216643,0.8152 3.395624,7.32918 3.576819,7.32918 0.0817,0 0.918796,-1.55533 1.860211,-3.45628 z m -2.767354,-3.83866 c -0.828124,-0.82813 -0.162881,-1.96548 1.149618,-1.96548 0.711635,0 1.609608,0.68988 1.609608,1.2366 0,0.96571 -1.995307,1.4928 -2.759226,0.72888 z"
         id="path1371"
         inkscape:connector-curvature="0" />
      <path
         style="fill:#a2a2a2;fill-opacity:1;stroke-width:0.26458335"
         d="m 29.399596,112.29418 c -2.458523,-4.86726 -2.848353,-6.18813 -2.308808,-7.82297 0.429345,-1.30092 2.002088,-2.80694 3.294834,-3.15504 2.484794,-0.66909 4.665976,0.25669 5.886919,2.49863 1.122995,2.06209 0.885389,3.12782 -1.90988,8.5664 -1.291443,2.51267 -2.40761,4.56798 -2.48037,4.56734 -0.07276,-6.3e-4 -1.189973,-2.09509 -2.482695,-4.65436 z m 4.342906,-1.70983 c 1.382288,-2.79119 1.706713,-3.68508 1.685937,-4.64527 -0.06502,-3.00495 -3.596326,-4.53494 -5.931583,-2.56996 -0.842405,0.70884 -1.443269,2.39451 -1.191384,3.34233 0.216643,0.8152 3.395624,7.32918 3.576819,7.32918 0.0817,0 0.918796,-1.55533 1.860211,-3.45628 z m -2.767354,-3.83866 c -0.828124,-0.82813 -0.162881,-1.96548 1.149618,-1.96548 0.711635,0 1.609608,0.68988 1.609608,1.2366 0,0.96571 -1.995307,1.4928 -2.759226,0.72888 z"
         id="path1369"
         inkscape:connector-curvature="0" />
      <path
         style="fill:#9d9d9d;fill-opacity:1;stroke-width:0.26458335"
         d="m 29.368749,112.25286 c -2.232483,-4.40124 -2.38125,-4.7963 -2.38125,-6.32361 0,-1.42263 0.102536,-1.75578 0.809066,-2.62872 1.42579,-1.76161 2.062567,-2.08991 4.055887,-2.09112 2.202358,-0.001 3.377822,0.69154 4.420089,2.60539 1.122995,2.06209 0.885389,3.12782 -1.90988,8.5664 -1.291443,2.51267 -2.40761,4.56798 -2.48037,4.56734 -0.07276,-6.3e-4 -1.203854,-2.11369 -2.513542,-4.69568 z m 4.373753,-1.66823 c 1.31651,-2.65814 1.711664,-3.72259 1.711664,-4.6108 0,-1.40048 -0.693222,-2.45034 -2.069862,-3.13472 -2.553029,-1.26921 -5.663318,1.10373 -5.059735,3.86025 0.200806,0.91706 3.316925,7.34127 3.560948,7.34127 0.07993,0 0.91557,-1.5552 1.856985,-3.456 z m -2.767354,-3.83894 c -0.828124,-0.82813 -0.162881,-1.96548 1.149618,-1.96548 0.711635,0 1.609608,0.68988 1.609608,1.2366 0,0.96571 -1.995307,1.4928 -2.759226,0.72888 z"
         id="path1367"
         inkscape:connector-curvature="0" />
      <path
         style="fill:#999999;fill-opacity:1;stroke-width:0.26458335"
         d="m 29.389909,112.25416 c -2.660388,-5.29332 -2.946854,-6.42793 -2.058946,-8.1549 1.024056,-1.99177 2.632943,-3.02322 4.715707,-3.02322 2.730515,0 5.145591,2.85509 4.781997,5.65325 -0.126572,0.97408 -4.599673,10.21556 -4.946376,10.21928 -0.07276,7.6e-4 -1.194333,-2.11171 -2.492382,-4.69441 z m 4.27925,-1.51554 c 1.897466,-3.80932 2.153613,-4.89291 1.466589,-6.20418 -1.325722,-2.53032 -4.584346,-2.77037 -6.277357,-0.46243 -0.986948,1.34542 -0.756367,2.63587 1.163689,6.51262 0.941415,1.9008 1.777059,3.456 1.856985,3.456 0.07993,0 0.885468,-1.48591 1.790094,-3.30201 z m -2.694011,-3.99293 c -0.828124,-0.82813 -0.162881,-1.96548 1.149618,-1.96548 0.711635,0 1.609608,0.68988 1.609608,1.2366 0,0.96571 -1.995307,1.4928 -2.759226,0.72888 z"
         id="path1365"
         inkscape:connector-curvature="0" />
      <path
         style="fill:#959595;fill-opacity:1;stroke-width:0.26458335"
         d="m 29.404732,112.28312 c -1.289898,-2.56677 -2.405041,-5.11249 -2.478096,-5.65716 -0.382134,-2.84902 2.104744,-5.54306 5.121781,-5.54844 2.725762,-0.005 5.143791,2.85401 4.78025,5.65177 -0.126572,0.97408 -4.599673,10.21556 -4.946376,10.21928 -0.07276,7.6e-4 -1.187662,-2.09867 -2.477559,-4.66545 z m 4.264427,-1.5445 c 1.897466,-3.80932 2.153613,-4.89291 1.466589,-6.20418 -1.325722,-2.53032 -4.584346,-2.77037 -6.277357,-0.46243 -0.986948,1.34542 -0.756367,2.63587 1.163689,6.51262 0.941415,1.9008 1.777059,3.456 1.856985,3.456 0.07993,0 0.885468,-1.48591 1.790094,-3.30201 z m -2.694011,-3.99293 c -0.828124,-0.82813 -0.162881,-1.96548 1.149618,-1.96548 0.711635,0 1.609608,0.68988 1.609608,1.2366 0,0.96571 -1.995307,1.4928 -2.759226,0.72888 z"
         id="path1363"
         inkscape:connector-curvature="0" />
      <path
         style="fill:#919191;fill-opacity:1;stroke-width:0.26458335"
         d="m 29.284328,111.99011 c -2.636769,-5.35574 -2.79432,-5.99913 -1.927507,-7.87136 1.56575,-3.38186 5.771963,-4.08163 8.163262,-1.35809 1.024935,1.16734 1.489716,2.57932 1.306348,3.96863 -0.131003,0.99256 -4.602107,10.21212 -4.955775,10.21897 -0.07916,0.002 -1.243008,-2.22964 -2.586328,-4.95815 z m 4.384831,-1.25149 c 1.897466,-3.80932 2.153613,-4.89291 1.466589,-6.20418 -1.325722,-2.53032 -4.584346,-2.77037 -6.277357,-0.46243 -0.986948,1.34542 -0.756367,2.63587 1.163689,6.51262 0.941415,1.9008 1.777059,3.456 1.856985,3.456 0.07993,0 0.885468,-1.48591 1.790094,-3.30201 z m -2.694011,-3.99293 c -0.828124,-0.82813 -0.162881,-1.96548 1.149618,-1.96548 0.711635,0 1.609608,0.68988 1.609608,1.2366 0,0.96571 -1.995307,1.4928 -2.759226,0.72888 z"
         id="path1361"
         inkscape:connector-curvature="0" />
      <path
         style="fill:#8c8c8c;fill-opacity:1;stroke-width:0.26458335"
         d="m 29.284328,111.99011 c -2.636178,-5.35454 -2.793798,-5.99769 -1.929046,-7.87136 1.204742,-2.61032 4.208449,-3.7559 6.620934,-2.52514 1.969507,1.00477 3.121475,3.08045 2.850215,5.13568 -0.131003,0.99256 -4.602107,10.21212 -4.955775,10.21897 -0.07916,0.002 -1.243008,-2.22964 -2.586328,-4.95815 z m 4.384831,-1.25149 c 1.897466,-3.80932 2.153613,-4.89291 1.466589,-6.20418 -1.325722,-2.53032 -4.584346,-2.77037 -6.277357,-0.46243 -0.986948,1.34542 -0.756367,2.63587 1.163689,6.51262 0.941415,1.9008 1.777059,3.456 1.856985,3.456 0.07993,0 0.885468,-1.48591 1.790094,-3.30201 z m -2.671902,-4.06101 c -0.565429,-0.62479 -0.551955,-0.9184 0.06789,-1.47935 0.646425,-0.58501 1.837476,-0.45289 2.304991,0.25568 0.824836,1.25013 -1.339058,2.36602 -2.372877,1.22367 z"
         id="path1359"
         inkscape:connector-curvature="0" />
      <path
         style="fill:#888888;fill-opacity:1;stroke-width:0.26458335"
         d="m 29.43553,112.32719 c -1.269099,-2.54312 -2.382113,-5.09075 -2.473364,-5.6614 -0.589394,-3.68587 3.679856,-6.77316 7.01405,-5.07218 1.963439,1.00167 3.123153,3.0833 2.850453,5.11643 -0.12899,0.9617 -4.610972,10.23746 -4.947887,10.23999 -0.07469,5.6e-4 -1.174154,-2.07972 -2.443252,-4.62284 z m 6.056235,-6.59803 c -0.461266,-3.64207 -5.152774,-4.45878 -6.862931,-1.19472 -0.69373,1.32407 -0.426997,2.41848 1.551955,6.36769 l 1.727123,3.44665 1.857495,-3.7921 c 1.589549,-3.24508 1.838578,-3.94146 1.726358,-4.82752 z m -4.494508,0.94845 c -0.565429,-0.62479 -0.551955,-0.9184 0.06789,-1.47935 0.646425,-0.58501 1.837476,-0.45289 2.304991,0.25568 0.824836,1.25013 -1.339058,2.36602 -2.372877,1.22367 z"
         id="path1357"
         inkscape:connector-curvature="0" />
      <path
         style="fill:#848484;fill-opacity:1;stroke-width:0.26458335"
         d="m 31.688545,116.63109 c -0.705425,-0.8715 -4.576843,-9.03015 -4.725197,-9.95791 -0.587416,-3.6735 3.678695,-6.786729 6.980004,-5.09372 1.241157,0.6365 2.035322,1.48544 2.556519,2.73284 0.820007,1.96255 0.56066,2.85887 -2.56919,8.87921 -1.473247,2.83382 -2.034961,3.69553 -2.242136,3.43958 z m 3.80683,-10.26338 c 0.153575,-1.1972 -0.560484,-2.58422 -1.733982,-3.36816 -2.153468,-1.43861 -5.142795,0.047 -5.492369,2.72961 -0.116288,0.89238 0.125825,1.5618 1.752485,4.84545 l 1.887413,3.81001 1.733831,-3.54543 c 0.953607,-1.94999 1.787287,-3.96216 1.852622,-4.47148 z m -4.498118,0.3099 c -0.565429,-0.62479 -0.551955,-0.9184 0.06789,-1.47935 0.646425,-0.58501 1.837476,-0.45289 2.304991,0.25568 0.824836,1.25013 -1.339058,2.36602 -2.372877,1.22367 z"
         id="path1355"
         inkscape:connector-curvature="0" />
      <path
         style="fill:#7f7f7f;fill-opacity:1;stroke-width:0.26458335"
         d="m 31.551871,116.35388 c -1.055911,-1.61153 -4.439789,-8.75057 -4.588478,-9.68042 -0.570853,-3.56992 3.341771,-6.59513 6.709723,-5.18791 1.307428,0.54628 2.145038,1.35236 2.736184,2.6332 0.947951,2.05394 0.701524,2.95567 -2.480318,9.07604 -1.932288,3.71682 -1.974722,3.77321 -2.377111,3.15909 z m 3.943504,-9.98617 c 0.153575,-1.1972 -0.560484,-2.58422 -1.733982,-3.36816 -2.153468,-1.43861 -5.142795,0.047 -5.492369,2.72961 -0.116288,0.89238 0.125825,1.5618 1.752485,4.84545 l 1.887413,3.81001 1.733831,-3.54543 c 0.953607,-1.94999 1.787287,-3.96216 1.852622,-4.47148 z m -4.498118,0.3099 c -0.565429,-0.62479 -0.551955,-0.9184 0.06789,-1.47935 0.646425,-0.58501 1.837476,-0.45289 2.304991,0.25568 0.824836,1.25013 -1.339058,2.36602 -2.372877,1.22367 z"
         id="path1353"
         inkscape:connector-curvature="0" />
      <path
         style="fill:#7b7b7b;fill-opacity:1;stroke-width:0.26458335"
         d="m 31.554212,116.35745 c -1.05777,-1.61436 -4.441955,-8.75305 -4.590819,-9.68399 -0.570853,-3.56992 3.341771,-6.59513 6.709723,-5.18791 1.307428,0.54628 2.145038,1.35236 2.736184,2.6332 0.945497,2.04862 0.714613,2.89239 -2.484489,9.07961 -1.927304,3.72751 -1.965129,3.77791 -2.370599,3.15909 z m 3.93916,-9.98974 c 0.156124,-1.19689 -0.556631,-2.58298 -1.731979,-3.36816 -2.153468,-1.43861 -5.142795,0.047 -5.492369,2.72961 -0.11632,0.89262 0.126351,1.56286 1.759569,4.85978 l 1.894498,3.82436 1.724743,-3.55977 c 0.948609,-1.95788 1.779101,-3.9765 1.845538,-4.48582 z m -4.496115,0.3099 c -0.565429,-0.62479 -0.551955,-0.9184 0.06789,-1.47935 0.646425,-0.58501 1.837476,-0.45289 2.304991,0.25568 0.824836,1.25013 -1.339058,2.36602 -2.372877,1.22367 z"
         id="path1351"
         inkscape:connector-curvature="0" />
      <path
         style="fill:#777777;fill-opacity:1;stroke-width:0.26458335"
         d="m 31.291234,115.85012 c -1.575718,-2.70422 -4.173685,-8.21262 -4.327731,-9.17597 -0.570962,-3.5706 3.341287,-6.59598 6.709613,-5.1886 1.307428,0.54628 2.145038,1.35236 2.736184,2.6332 0.945673,2.049 0.714948,2.89171 -2.487527,9.08554 l -1.961593,3.79386 z m 4.201159,-9.48241 c 0.15737,-1.19674 -0.554748,-2.58238 -1.731,-3.36816 -2.153468,-1.43861 -5.142795,0.047 -5.492369,2.72961 -0.116347,0.89283 0.126794,1.56376 1.765557,4.87188 l 1.900487,3.83646 1.717776,-3.57187 c 0.944776,-1.96453 1.772573,-3.9886 1.839549,-4.49792 z m -4.495136,0.3099 c -0.565429,-0.62479 -0.551955,-0.9184 0.06789,-1.47935 0.646425,-0.58501 1.837476,-0.45289 2.304991,0.25568 0.824836,1.25013 -1.339058,2.36602 -2.372877,1.22367 z"
         id="path1349"
         inkscape:connector-curvature="0" />
      <path
         style="fill:#737373;fill-opacity:1;stroke-width:0.26458335"
         d="m 31.29163,115.85079 c -1.576046,-2.70477 -4.174063,-8.21317 -4.328127,-9.17664 -0.570962,-3.5706 3.341287,-6.59598 6.709613,-5.1886 1.307428,0.54628 2.145038,1.35236 2.736184,2.6332 0.94915,2.05653 0.794004,2.63283 -2.378233,8.83404 l -2.070096,4.04671 z m 4.200797,-9.48308 c 0.157327,-1.19675 -0.554814,-2.5824 -1.731034,-3.36816 -2.153468,-1.43861 -5.142795,0.047 -5.492369,2.72961 -0.116429,0.89346 0.126309,1.56144 1.770387,4.87188 l 1.905315,3.83646 1.712981,-3.57187 c 0.94214,-1.96453 1.767764,-3.9886 1.83472,-4.49792 z m -4.49517,0.3099 c -0.565429,-0.62479 -0.551955,-0.9184 0.06789,-1.47935 0.646425,-0.58501 1.837476,-0.45289 2.304991,0.25568 0.824836,1.25013 -1.339058,2.36602 -2.372877,1.22367 z"
         id="path1347"
         inkscape:connector-curvature="0" />
      <path
         style="fill:#6e6e6e;fill-opacity:1;stroke-width:0.26458335"
         d="m 31.016518,115.31108 c -1.986148,-3.57382 -3.893186,-7.63742 -4.05287,-8.63602 -0.438143,-2.74 2.068451,-5.58739 4.918643,-5.58739 2.900698,0 5.409152,2.96271 4.898168,5.78519 -0.127048,0.70177 -4.301964,9.47817 -4.769211,10.02572 -0.03746,0.0439 -0.485093,-0.67048 -0.99473,-1.5875 z m 2.806236,-4.7964 c 0.970037,-2.08479 1.763259,-4.13861 1.762715,-4.56406 -0.0013,-1.03114 -0.853402,-2.37677 -1.914822,-3.02392 -2.136961,-1.30292 -4.981591,0.13043 -5.402152,2.72204 -0.137993,0.85035 0.09396,1.52219 1.660553,4.80972 1.001524,2.10172 1.890488,3.82703 1.975477,3.83403 0.08499,0.007 0.948192,-1.69302 1.918229,-3.77781 z m -2.825497,-3.83707 c -0.565429,-0.62479 -0.551955,-0.9184 0.06789,-1.47935 0.646425,-0.58501 1.837476,-0.45289 2.304991,0.25568 0.824836,1.25013 -1.339058,2.36602 -2.372877,1.22367 z"
         id="path1345"
         inkscape:connector-curvature="0" />
      <path
         style="fill:#6a6a6a;fill-opacity:1;stroke-width:0.26458335"
         d="m 29.434256,112.25581 c -1.258493,-2.44192 -2.366882,-4.93209 -2.463085,-5.53371 -0.445836,-2.7881 2.035102,-5.63443 4.91112,-5.63443 2.899781,0 5.387226,2.93192 4.897695,5.77286 -0.179872,1.04387 -4.41142,9.61974 -4.812601,9.75347 -0.134727,0.0449 -1.274635,-1.91628 -2.533129,-4.35819 z m 4.388498,-1.74113 c 0.970037,-2.08479 1.763259,-4.13861 1.762715,-4.56406 -0.0013,-1.03114 -0.853402,-2.37677 -1.914822,-3.02392 -2.132515,-1.30021 -4.981561,0.13024 -5.400435,2.71146 -0.135668,0.83603 0.105156,1.53434 1.660553,4.81509 1.000579,2.11049 1.888771,3.84056 1.97376,3.84461 0.08499,0.004 0.948192,-1.69839 1.918229,-3.78318 z m -2.825497,-3.83707 c -0.565429,-0.62479 -0.551955,-0.9184 0.06789,-1.47935 0.646425,-0.58501 1.837476,-0.45289 2.304991,0.25568 0.824836,1.25013 -1.339058,2.36602 -2.372877,1.22367 z"
         id="path1343"
         inkscape:connector-curvature="0" />
      <path
         style="fill:#666666;fill-opacity:1;stroke-width:0.26458335"
         d="m 29.434256,112.25581 c -1.258493,-2.44192 -2.366882,-4.93209 -2.463085,-5.53371 -0.445836,-2.7881 2.035102,-5.63443 4.91112,-5.63443 2.899781,0 5.387226,2.93192 4.897695,5.77286 -0.179872,1.04387 -4.41142,9.61974 -4.812601,9.75347 -0.134727,0.0449 -1.274635,-1.91628 -2.533129,-4.35819 z m 4.394877,-1.73533 c 0.966529,-2.0816 1.75688,-4.13543 1.756336,-4.56406 -0.0013,-1.03642 -0.851283,-2.38127 -1.914822,-3.02972 -2.184235,-1.33175 -4.973436,0.0802 -5.404375,2.73575 -0.127376,0.78492 0.144764,1.56712 1.665738,4.78777 0.999894,2.11726 1.890397,3.85079 1.978894,3.85228 0.0885,0.001 0.951701,-1.70042 1.918229,-3.78202 z m -2.831876,-3.84287 c -0.565429,-0.62479 -0.551955,-0.9184 0.06789,-1.47935 0.646425,-0.58501 1.837476,-0.45289 2.304991,0.25568 0.824836,1.25013 -1.339058,2.36602 -2.372877,1.22367 z"
         id="path1341"
         inkscape:connector-curvature="0" />
      <path
         style="fill:#626262;fill-opacity:1;stroke-width:0.26458335"
         d="m 29.447385,112.25469 c -1.258536,-2.43747 -2.366325,-4.8593 -2.461754,-5.38183 -0.529636,-2.90007 2.064348,-5.80983 5.161243,-5.78953 1.025763,0.007 2.726323,0.88817 3.509717,1.81918 0.880483,1.04639 1.352268,2.71965 1.118366,3.96646 -0.191889,1.02286 -4.535814,9.81749 -4.849144,9.81749 -0.1046,0 -1.219893,-1.9943 -2.478428,-4.43177 z m 4.278094,-1.45521 c 1.899639,-4.01191 2.148826,-5.21 1.348731,-6.48471 -1.916687,-3.05365 -6.231851,-2.20234 -6.807171,1.34294 -0.12626,0.77806 0.150446,1.57566 1.661921,4.79049 0.997372,2.12136 1.886113,3.85701 1.97498,3.85701 0.08887,0 0.90856,-1.57758 1.821539,-3.50573 z m -2.728222,-4.12187 c -0.565429,-0.62479 -0.551955,-0.9184 0.06789,-1.47935 0.646425,-0.58501 1.837476,-0.45289 2.304991,0.25568 0.824836,1.25013 -1.339058,2.36602 -2.372877,1.22367 z"
         id="path1339"
         inkscape:connector-curvature="0" />
      <path
         style="fill:#5d5d5d;fill-opacity:1;stroke-width:0.26458335"
         d="m 29.447385,112.25469 c -1.258536,-2.43747 -2.366325,-4.8593 -2.461754,-5.38183 -0.529636,-2.90007 2.064348,-5.80983 5.161243,-5.78953 1.025763,0.007 2.726323,0.88817 3.509717,1.81918 0.880483,1.04639 1.352268,2.71965 1.118366,3.96646 -0.191889,1.02286 -4.535814,9.81749 -4.849144,9.81749 -0.1046,0 -1.219893,-1.9943 -2.478428,-4.43177 z m 4.280074,-1.45521 c 0.912758,-1.92815 1.717511,-3.93284 1.788341,-4.45486 0.374592,-2.76076 -3.04483,-4.92626 -5.421865,-3.43364 -1.065779,0.66924 -1.91351,2.01411 -1.914822,3.03773 -9.71e-4,0.7583 3.377696,8.3565 3.715858,8.3565 0.09511,0 0.919731,-1.57758 1.832488,-3.50573 z m -2.752707,-4.22106 c -0.34729,-0.49583 -0.354939,-0.66404 -0.05114,-1.12448 0.71849,-1.08895 2.546176,-0.73264 2.546176,0.49638 0,1.26404 -1.742382,1.70267 -2.495039,0.6281 z"
         id="path1337"
         inkscape:connector-curvature="0" />
      <path
         style="fill:#595959;fill-opacity:1;stroke-width:0.26458335"
         d="m 29.454674,112.25453 c -1.262429,-2.43739 -2.373451,-4.85914 -2.468938,-5.38167 -0.529918,-2.89986 2.0642,-5.80983 5.161138,-5.78953 1.025763,0.007 2.726323,0.88817 3.509717,1.81918 0.880483,1.04639 1.352268,2.71965 1.118366,3.96646 -0.189269,1.00889 -4.533771,9.8176 -4.841959,9.81733 -0.100649,-9e-5 -1.215895,-1.99438 -2.478324,-4.43177 z m 4.270034,-1.43169 c 0.912448,-1.9153 1.717694,-3.91998 1.789435,-4.45485 0.373575,-2.78521 -3.031494,-4.95697 -5.420208,-3.45701 -1.065779,0.66924 -1.91351,2.01411 -1.914822,3.03773 -9.7e-4,0.7568 3.377367,8.3565 3.714763,8.3565 0.09451,0 0.918383,-1.56706 1.830832,-3.48237 z m -2.749956,-4.24442 c -0.34729,-0.49583 -0.354939,-0.66404 -0.05114,-1.12448 0.71849,-1.08895 2.546176,-0.73264 2.546176,0.49638 0,1.26404 -1.742382,1.70267 -2.495039,0.6281 z"
         id="path1335"
         inkscape:connector-curvature="0" />
      <path
         style="fill:#555555;fill-opacity:1;stroke-width:0.26458335"
         d="m 29.586028,112.51623 c -2.522941,-4.85491 -2.912096,-6.08022 -2.46197,-7.75187 0.555003,-2.06112 2.7854,-3.69569 5.022816,-3.68103 1.025763,0.007 2.726323,0.88817 3.509717,1.81918 0.873173,1.0377 1.352721,2.71724 1.12398,3.93653 -0.183905,0.9803 -4.55647,9.84947 -4.853347,9.84438 -0.09747,-0.002 -1.151012,-1.87691 -2.341196,-4.16719 z m 4.130018,-1.65428 c 0.911443,-1.89379 1.718226,-3.89848 1.792852,-4.45486 0.378711,-2.82349 -3.005988,-5.00879 -5.414963,-3.49611 -1.066483,0.66968 -1.913511,2.01428 -1.914822,3.03964 -9.79e-4,0.76574 3.362705,8.35459 3.703091,8.35459 0.09717,0 0.922399,-1.54947 1.833842,-3.44326 z m -2.741294,-4.28353 c -0.34729,-0.49583 -0.354939,-0.66404 -0.05114,-1.12448 0.71849,-1.08895 2.546176,-0.73264 2.546176,0.49638 0,1.26404 -1.742382,1.70267 -2.495039,0.6281 z"
         id="path1333"
         inkscape:connector-curvature="0" />
      <path
         style="fill:#515151;fill-opacity:1;stroke-width:0.26458335"
         d="m 29.586028,112.51623 c -2.522941,-4.85491 -2.912096,-6.08022 -2.46197,-7.75187 0.555003,-2.06112 2.7854,-3.69569 5.022816,-3.68103 1.025763,0.007 2.726323,0.88817 3.509717,1.81918 0.873173,1.0377 1.352721,2.71724 1.12398,3.93653 -0.183905,0.9803 -4.55647,9.84947 -4.853347,9.84438 -0.09747,-0.002 -1.151012,-1.87691 -2.341196,-4.16719 z m 4.118225,-1.60952 c 0.911325,-1.86918 1.720714,-3.87386 1.798642,-4.45486 0.384593,-2.86736 -2.977017,-5.06797 -5.40896,-3.54087 -1.280236,0.80391 -1.96736,2.04873 -1.835034,3.32444 0.103918,1.00184 3.279406,8.06979 3.625593,8.06979 0.08954,0 0.908434,-1.52933 1.819759,-3.3985 z m -2.729501,-4.32829 c -0.34729,-0.49583 -0.354939,-0.66404 -0.05114,-1.12448 0.71849,-1.08895 2.546176,-0.73264 2.546176,0.49638 0,1.26404 -1.742382,1.70267 -2.495039,0.6281 z"
         id="path1331"
         inkscape:connector-curvature="0" />
      <path
         style="fill:#4c4c4c;fill-opacity:1;stroke-width:0.26458335"
         d="m 29.587593,112.51444 c -2.524994,-4.86083 -2.912916,-6.0812 -2.463535,-7.75008 0.555003,-2.06112 2.7854,-3.69569 5.022816,-3.68103 1.025763,0.007 2.726323,0.88817 3.509717,1.81918 1.01574,1.20714 1.369659,2.71974 0.990561,4.23351 -0.304849,1.21729 -4.445068,9.55451 -4.740415,9.54584 -0.08621,-0.003 -1.12982,-1.87787 -2.319144,-4.16742 z m 4.233927,-1.8587 c 2.211618,-4.57309 2.256751,-5.64735 0.313553,-7.46303 -1.026199,-0.95886 -3.479365,-0.95886 -4.505564,0 -1.061296,0.99165 -1.528133,2.06393 -1.37986,3.16939 0.13102,0.97683 3.319909,7.94311 3.636043,7.94311 0.09399,0 0.965113,-1.64226 1.935828,-3.64947 z m -2.846768,-4.07732 c -0.34729,-0.49583 -0.354939,-0.66404 -0.05114,-1.12448 0.71849,-1.08895 2.546176,-0.73264 2.546176,0.49638 0,1.26404 -1.742382,1.70267 -2.495039,0.6281 z"
         id="path1329"
         inkscape:connector-curvature="0" />
      <path
         style="fill:#484848;fill-opacity:1;stroke-width:0.26458335"
         d="m 29.587593,112.51444 c -2.524994,-4.86083 -2.912916,-6.0812 -2.463535,-7.75008 0.547913,-2.03479 2.765535,-3.68147 4.965169,-3.68684 0.895934,-0.002 2.471356,0.72472 3.308494,1.52656 1.058832,1.01419 1.628701,3.13452 1.23852,4.60821 -0.314241,1.18687 -4.454997,9.47763 -4.729504,9.46957 -0.08621,-0.003 -1.12982,-1.87787 -2.319144,-4.16742 z m 4.233927,-1.8587 c 2.211618,-4.57309 2.256751,-5.64735 0.313553,-7.46303 -0.589587,-0.5509 -0.968961,-0.66146 -2.269688,-0.66146 -1.442402,0 -1.635093,0.0733 -2.521013,0.95924 -0.734523,0.73452 -0.990391,1.23563 -1.09222,2.13906 -0.118228,1.04891 0.06619,1.59567 1.662074,4.92774 0.987281,2.06135 1.873199,3.74792 1.968707,3.74792 0.09551,0 0.967872,-1.64226 1.938587,-3.64947 z m -2.846768,-4.07732 c -0.34729,-0.49583 -0.354939,-0.66404 -0.05114,-1.12448 0.71849,-1.08895 2.546176,-0.73264 2.546176,0.49638 0,1.26404 -1.742382,1.70267 -2.495039,0.6281 z"
         id="path1327"
         inkscape:connector-curvature="0" />
      <path
         style="fill:#444444;fill-opacity:1;stroke-width:0.26458335"
         d="m 29.378199,112.06189 c -2.123645,-4.13723 -2.371801,-4.77033 -2.371801,-6.05093 0,-2.45289 1.75957,-4.44833 4.252122,-4.82211 3.314863,-0.49709 6.236161,2.77439 5.378691,6.02344 -0.30386,1.15136 -4.470431,9.47583 -4.741048,9.47222 -0.08039,-0.001 -1.213474,-2.08125 -2.517964,-4.62262 z m 4.441703,-1.3947 c 2.223755,-4.55865 2.269698,-5.64821 0.315171,-7.47448 -0.589587,-0.5509 -0.968961,-0.66146 -2.269688,-0.66146 -1.442402,0 -1.635093,0.0733 -2.521013,0.95924 -0.744359,0.74436 -0.989962,1.23182 -1.096394,2.17609 -0.123851,1.0988 0.03771,1.57683 1.665389,4.92774 0.9914,2.04099 1.876644,3.71089 1.967208,3.71089 0.09056,0 0.963261,-1.63711 1.939327,-3.63802 z m -2.84515,-4.08877 c -0.34729,-0.49583 -0.354939,-0.66404 -0.05114,-1.12448 0.71849,-1.08895 2.546176,-0.73264 2.546176,0.49638 0,1.26404 -1.742382,1.70267 -2.495039,0.6281 z"
         id="path1325"
         inkscape:connector-curvature="0" />
      <path
         style="fill:#404040;fill-opacity:1;stroke-width:0.26458335"
         d="m 29.378199,112.05122 c -2.116564,-4.13145 -2.371801,-4.78252 -2.371801,-6.05009 0,-3.22979 3.303217,-5.65979 6.333955,-4.65956 2.429294,0.80174 3.929573,3.47329 3.296858,5.87072 -0.304138,1.15242 -4.470904,9.47653 -4.741048,9.47138 -0.08039,-0.002 -1.213474,-2.08613 -2.517964,-4.63245 z m 4.441703,-1.38403 c 2.223755,-4.55865 2.269698,-5.64821 0.315171,-7.47448 -0.589587,-0.5509 -0.968961,-0.66146 -2.269688,-0.66146 -1.442402,0 -1.635093,0.0733 -2.521013,0.95924 -0.749029,0.74903 -0.989749,1.22993 -1.098469,2.19449 -0.126646,1.12361 0.02403,1.56898 1.667106,4.92774 0.993485,2.03087 1.879662,3.69249 1.969282,3.69249 0.08962,0 0.961545,-1.63711 1.937611,-3.63802 z m -2.84515,-4.08877 c -0.34729,-0.49583 -0.354939,-0.66404 -0.05114,-1.12448 0.71849,-1.08895 2.546176,-0.73264 2.546176,0.49638 0,1.26404 -1.742382,1.70267 -2.495039,0.6281 z"
         id="path1323"
         inkscape:connector-curvature="0" />
      <path
         style="fill:#3b3b3b;fill-opacity:1;stroke-width:0.26458335"
         d="m 29.377324,112.04952 c -2.165308,-4.2266 -2.370844,-4.75801 -2.351729,-6.08042 0.08058,-5.57474 7.946857,-6.657917 9.502001,-1.30841 0.331364,1.13985 0.352479,1.63136 0.109615,2.5516 -0.304138,1.15242 -4.470904,9.47653 -4.741048,9.47138 -0.08039,-0.002 -1.213867,-2.0869 -2.518839,-4.63415 z m 4.474249,-1.4368 c 1.654913,-3.38295 1.794444,-3.798 1.664475,-4.95108 -0.118108,-1.04785 -0.327274,-1.43154 -1.249198,-2.2915 -1.061092,-0.98978 -1.167947,-1.02789 -2.558626,-0.91256 -1.227382,0.10178 -1.595681,0.26474 -2.387189,1.05625 -0.725424,0.72542 -0.967213,1.2137 -1.075132,2.17115 -0.126646,1.12361 0.02403,1.56898 1.667106,4.92774 0.993485,2.03087 1.879662,3.69249 1.969282,3.69249 0.08962,0 0.975797,-1.66162 1.969282,-3.69249 z m -2.750946,-3.83357 c -0.419242,-0.50516 -0.257354,-1.47721 0.304681,-1.82947 0.692715,-0.43415 1.911931,0.0957 2.023465,0.87936 0.158757,1.11548 -1.596437,1.83176 -2.328146,0.95011 z"
         id="path1321"
         inkscape:connector-curvature="0" />
      <path
         style="fill:#373737;fill-opacity:1;stroke-width:0.26458335"
         d="m 29.377324,112.04952 c -2.152135,-4.20089 -2.370758,-4.76395 -2.352056,-6.05776 0.03458,-2.39216 1.401472,-4.07605 3.769958,-4.64424 3.53467,-0.84795 6.754721,2.40399 5.83456,5.89235 -0.298811,1.1328 -4.467175,9.44888 -4.733623,9.4438 -0.08039,-0.002 -1.213867,-2.0869 -2.518839,-4.63415 z m 4.474249,-1.4368 c 1.654913,-3.38295 1.794444,-3.798 1.664475,-4.95108 -0.118108,-1.04785 -0.327274,-1.43154 -1.249198,-2.2915 -1.061092,-0.98978 -1.167947,-1.02789 -2.558626,-0.91256 -1.227382,0.10178 -1.595681,0.26474 -2.387189,1.05625 -0.725424,0.72542 -0.967213,1.2137 -1.075132,2.17115 -0.126646,1.12361 0.02403,1.56898 1.667106,4.92774 0.993485,2.03087 1.879662,3.69249 1.969282,3.69249 0.08962,0 0.975797,-1.66162 1.969282,-3.69249 z m -2.750946,-3.83357 c -0.419242,-0.50516 -0.257354,-1.47721 0.304681,-1.82947 0.692715,-0.43415 1.911931,0.0957 2.023465,0.87936 0.158757,1.11548 -1.596437,1.83176 -2.328146,0.95011 z"
         id="path1319"
         inkscape:connector-curvature="0" />
      <path
         style="fill:#333333;fill-opacity:1;stroke-width:0.26458335"
         d="m 29.549368,112.38165 c -1.210348,-2.36178 -2.305873,-4.7704 -2.4345,-5.35248 -0.543743,-2.46063 0.913332,-4.87026 3.378294,-5.58684 1.379361,-0.401 1.587352,-0.40044 2.882128,0.008 2.448338,0.77177 3.897705,3.34998 3.254812,5.78984 -0.292375,1.1096 -4.483074,9.45137 -4.743054,9.44126 -0.07538,-0.003 -1.127333,-1.9377 -2.33768,-4.29948 z m 4.302205,-1.76893 c 1.608004,-3.28706 1.791845,-3.82105 1.674359,-4.86339 -0.07259,-0.64399 -0.356555,-1.47635 -0.631038,-1.84968 -1.971386,-2.68135 -6.275806,-1.52556 -6.648991,1.78533 -0.126646,1.12361 0.02403,1.56898 1.667106,4.92774 0.993485,2.03087 1.879662,3.69249 1.969282,3.69249 0.08962,0 0.975797,-1.66162 1.969282,-3.69249 z m -2.750946,-3.83357 c -0.419242,-0.50516 -0.257354,-1.47721 0.304681,-1.82947 0.692715,-0.43415 1.911931,0.0957 2.023465,0.87936 0.158757,1.11548 -1.596437,1.83176 -2.328146,0.95011 z"
         id="path1317"
         inkscape:connector-curvature="0" />
    </g>
  </g>
</svg>
