<?xml version="1.0" encoding="UTF-8" standalone="no"?>
<!-- Created with Inkscape (http://www.inkscape.org/) -->

<svg
   xmlns:dc="http://purl.org/dc/elements/1.1/"
   xmlns:cc="http://creativecommons.org/ns#"
   xmlns:rdf="http://www.w3.org/1999/02/22-rdf-syntax-ns#"
   xmlns:svg="http://www.w3.org/2000/svg"
   xmlns="http://www.w3.org/2000/svg"
   xmlns:sodipodi="http://sodipodi.sourceforge.net/DTD/sodipodi-0.dtd"
   xmlns:inkscape="http://www.inkscape.org/namespaces/inkscape"
   width="12.493299mm"
   height="12.674931mm"
   viewBox="0 0 12.4933 12.67493"
   version="1.1"
   id="svg1700"
   sodipodi:docname="phone.svg"
   inkscape:version="0.92.4 (5da689c313, 2019-01-14)">
  <defs
     id="defs1694" />
  <sodipodi:namedview
     id="base"
     pagecolor="#ffffff"
     bordercolor="#666666"
     borderopacity="1.0"
     inkscape:pageopacity="0.0"
     inkscape:pageshadow="2"
     inkscape:zoom="3.959798"
     inkscape:cx="-4.6459852"
     inkscape:cy="63.889794"
     inkscape:document-units="mm"
     inkscape:current-layer="layer1"
     showgrid="false"
     inkscape:window-width="1920"
     inkscape:window-height="1001"
     inkscape:window-x="-9"
     inkscape:window-y="-9"
     inkscape:window-maximized="1" />
  <metadata
     id="metadata1697">
    <rdf:RDF>
      <cc:Work
         rdf:about="">
        <dc:format>image/svg+xml</dc:format>
        <dc:type
           rdf:resource="http://purl.org/dc/dcmitype/StillImage" />
        <dc:title></dc:title>
      </cc:Work>
    </rdf:RDF>
  </metadata>
  <g
     inkscape:label="Layer 1"
     inkscape:groupmode="layer"
     id="layer1"
     transform="translate(-29.712993,-63.936144)">
    <g
       id="g1410"
       transform="translate(0.74475889,-51.918766)">
      <path
         style="fill:#dddddd;fill-opacity:1;stroke-width:0.26458332"
         d="m 30.235299,128.14248 c -0.832154,-0.45159 -1.264758,-1.14414 -1.260283,-2.01757 0.0024,-0.47243 0.356979,-0.80702 1.548669,-1.46146 l 1.545531,-0.84876 0.749789,0.78261 c 0.412385,0.43044 0.885696,0.78261 1.051803,0.78261 0.71399,0 2.797669,-1.71545 3.732676,-3.07304 l 1.014035,-1.47233 -0.856457,-0.70388 c -0.471051,-0.38713 -0.855383,-0.83156 -0.854071,-0.98762 0.0036,-0.42834 1.599434,-3.28813 1.834859,-3.28813 0.738374,0 1.839676,0.66811 2.252062,1.36623 1.129445,1.91199 0.175817,4.89568 -2.459321,7.69466 -2.827068,3.00284 -6.255531,4.33579 -8.299292,3.22668 z"
         id="path1492"
         inkscape:connector-curvature="0" />
      <path
         style="fill:#d9d9d9;fill-opacity:1;stroke-width:0.26458332"
         d="m 30.235299,128.14248 c -0.832154,-0.45159 -1.264758,-1.14414 -1.260283,-2.01757 0.0024,-0.47243 0.356979,-0.80702 1.548669,-1.46146 l 1.545531,-0.84876 0.749789,0.78261 c 0.412385,0.43044 0.885696,0.78261 1.051803,0.78261 0.71399,0 2.797669,-1.71545 3.732676,-3.07304 l 1.014035,-1.47233 -0.856457,-0.70388 c -0.471051,-0.38713 -0.855383,-0.83156 -0.854071,-0.98762 0.0036,-0.42834 1.599434,-3.28813 1.834859,-3.28813 0.738374,0 1.839676,0.66811 2.252062,1.36623 1.129445,1.91199 0.175817,4.89568 -2.459321,7.69466 -2.827068,3.00284 -6.255531,4.33579 -8.299292,3.22668 z"
         id="path1490"
         inkscape:connector-curvature="0" />
      <path
         style="fill:#d5d5d5;fill-opacity:1;stroke-width:0.26458332"
         d="m 30.235299,128.14248 c -0.832154,-0.45159 -1.264758,-1.14414 -1.260283,-2.01757 0.0024,-0.47243 0.356979,-0.80702 1.548669,-1.46146 l 1.545531,-0.84876 0.749789,0.78261 c 0.412385,0.43044 0.885696,0.78261 1.051803,0.78261 0.71399,0 2.797669,-1.71545 3.732676,-3.07304 l 1.014035,-1.47233 -0.856457,-0.70388 c -0.471051,-0.38713 -0.855383,-0.83156 -0.854071,-0.98762 0.0036,-0.42834 1.599434,-3.28813 1.834859,-3.28813 0.738374,0 1.839676,0.66811 2.252062,1.36623 1.129445,1.91199 0.175817,4.89568 -2.459321,7.69466 -2.827068,3.00284 -6.255531,4.33579 -8.299292,3.22668 z"
         id="path1488"
         inkscape:connector-curvature="0" />
      <path
         style="fill:#d1d1d1;fill-opacity:1;stroke-width:0.26458332"
         d="m 30.235299,128.14248 c -0.832154,-0.45159 -1.264758,-1.14414 -1.260283,-2.01757 0.0024,-0.47243 0.356979,-0.80702 1.548669,-1.46146 l 1.545531,-0.84876 0.749789,0.78261 c 0.412385,0.43044 0.885696,0.78261 1.051803,0.78261 0.71399,0 2.797669,-1.71545 3.732676,-3.07304 l 1.014035,-1.47233 -0.856457,-0.70388 c -0.471051,-0.38713 -0.855383,-0.83156 -0.854071,-0.98762 0.0036,-0.42834 1.599434,-3.28813 1.834859,-3.28813 0.738374,0 1.839676,0.66811 2.252062,1.36623 1.129445,1.91199 0.175817,4.89568 -2.459321,7.69466 -2.827068,3.00284 -6.255531,4.33579 -8.299292,3.22668 z"
         id="path1486"
         inkscape:connector-curvature="0" />
      <path
         style="fill:#cccccc;fill-opacity:1;stroke-width:0.26458332"
         d="m 30.235299,128.14248 c -0.832488,-0.45177 -1.265042,-1.14461 -1.25961,-2.01757 0.0029,-0.45961 0.333446,-0.79451 1.323054,-1.34031 1.619876,-0.89341 1.85908,-0.8994 2.641883,-0.0661 0.341774,0.36381 0.787561,0.66146 0.990637,0.66146 0.753326,0 2.764661,-1.67265 3.693464,-3.07153 l 0.958812,-1.44407 -0.879203,-0.90711 -0.879202,-0.9071 0.637434,-1.21444 c 0.946733,-1.80371 1.358023,-2.1099 2.248089,-1.67365 2.699009,1.32286 2.205004,5.08005 -1.143468,8.69671 -2.770557,2.99246 -6.303144,4.38472 -8.33189,3.28376 z"
         id="path1484"
         inkscape:connector-curvature="0" />
      <path
         style="fill:#c8c8c8;fill-opacity:1;stroke-width:0.26458332"
         d="m 30.235299,128.14248 c -0.832488,-0.45177 -1.265042,-1.14461 -1.25961,-2.01757 0.0029,-0.45961 0.333446,-0.79451 1.323054,-1.34031 1.619876,-0.89341 1.85908,-0.8994 2.641883,-0.0661 0.341774,0.36381 0.787561,0.66146 0.990637,0.66146 0.753326,0 2.764661,-1.67265 3.693464,-3.07153 l 0.958812,-1.44407 -0.879203,-0.90711 -0.879202,-0.9071 0.637434,-1.21444 c 0.946733,-1.80371 1.358023,-2.1099 2.248089,-1.67365 2.699009,1.32286 2.205004,5.08005 -1.143468,8.69671 -2.770557,2.99246 -6.303144,4.38472 -8.33189,3.28376 z"
         id="path1482"
         inkscape:connector-curvature="0" />
      <path
         style="fill:#c4c4c4;fill-opacity:1;stroke-width:0.26458332"
         d="m 30.235299,128.14248 c -0.832488,-0.45177 -1.265042,-1.14461 -1.25961,-2.01757 0.0029,-0.45961 0.333446,-0.79451 1.323054,-1.34031 1.619876,-0.89341 1.85908,-0.8994 2.641883,-0.0661 0.341774,0.36381 0.787561,0.66146 0.990637,0.66146 0.753326,0 2.764661,-1.67265 3.693464,-3.07153 l 0.958812,-1.44407 -0.879203,-0.90711 -0.879202,-0.9071 0.637434,-1.21444 c 0.946733,-1.80371 1.358023,-2.1099 2.248089,-1.67365 2.699009,1.32286 2.205004,5.08005 -1.143468,8.69671 -2.770557,2.99246 -6.303144,4.38472 -8.33189,3.28376 z"
         id="path1480"
         inkscape:connector-curvature="0" />
      <path
         style="fill:#c0c0c0;fill-opacity:1;stroke-width:0.26458332"
         d="m 30.235299,128.14248 c -0.832488,-0.45177 -1.265042,-1.14461 -1.25961,-2.01757 0.0029,-0.45961 0.333446,-0.79451 1.323054,-1.34031 1.619876,-0.89341 1.85908,-0.8994 2.641883,-0.0661 0.341774,0.36381 0.787561,0.66146 0.990637,0.66146 0.753326,0 2.764661,-1.67265 3.693464,-3.07153 l 0.958812,-1.44407 -0.879203,-0.90711 -0.879202,-0.9071 0.637434,-1.21444 c 0.946733,-1.80371 1.358023,-2.1099 2.248089,-1.67365 2.699009,1.32286 2.205004,5.08005 -1.143468,8.69671 -2.770557,2.99246 -6.303144,4.38472 -8.33189,3.28376 z"
         id="path1478"
         inkscape:connector-curvature="0" />
      <path
         style="fill:#bbbbbb;fill-opacity:1;stroke-width:0.26458332"
         d="m 30.094596,128.01004 c -0.858593,-0.56564 -1.305073,-1.50871 -1.040584,-2.19796 0.146551,-0.3819 2.42737,-1.75508 2.915156,-1.75508 0.156644,0 0.651659,0.35556 1.100034,0.79014 l 0.815226,0.79015 1.326636,-0.89341 c 1.282902,-0.86395 2.318397,-1.99955 3.004444,-3.29488 0.297236,-0.56122 0.243415,-0.71326 -0.537809,-1.51928 l -0.8681,-0.89565 0.619319,-1.12656 c 0.901826,-1.64044 1.05621,-1.78801 1.870585,-1.78801 0.499093,0 0.959471,0.2634 1.422811,0.81405 2.702756,3.21204 -3.144772,11.09552 -8.563043,11.54447 -0.90497,0.075 -1.416496,-0.041 -2.064675,-0.46798 z"
         id="path1476"
         inkscape:connector-curvature="0" />
      <path
         style="fill:#b7b7b7;fill-opacity:1;stroke-width:0.26458332"
         d="m 30.094596,128.01004 c -0.858593,-0.56564 -1.305073,-1.50871 -1.040584,-2.19796 0.146551,-0.3819 2.42737,-1.75508 2.915156,-1.75508 0.156644,0 0.651659,0.35556 1.100034,0.79014 l 0.815226,0.79015 1.326636,-0.89341 c 1.282902,-0.86395 2.318397,-1.99955 3.004444,-3.29488 0.297236,-0.56122 0.243415,-0.71326 -0.537809,-1.51928 l -0.8681,-0.89565 0.619319,-1.12656 c 0.901826,-1.64044 1.05621,-1.78801 1.870585,-1.78801 0.499093,0 0.959471,0.2634 1.422811,0.81405 2.702756,3.21204 -3.144772,11.09552 -8.563043,11.54447 -0.90497,0.075 -1.416496,-0.041 -2.064675,-0.46798 z"
         id="path1474"
         inkscape:connector-curvature="0" />
      <path
         style="fill:#b3b3b3;fill-opacity:1;stroke-width:0.26458332"
         d="m 30.094596,128.01004 c -0.858593,-0.56564 -1.305073,-1.50871 -1.040584,-2.19796 0.146551,-0.3819 2.42737,-1.75508 2.915156,-1.75508 0.156644,0 0.651659,0.35556 1.100034,0.79014 l 0.815226,0.79015 1.326636,-0.89341 c 1.282902,-0.86395 2.318397,-1.99955 3.004444,-3.29488 0.297236,-0.56122 0.243415,-0.71326 -0.537809,-1.51928 l -0.8681,-0.89565 0.619319,-1.12656 c 0.901826,-1.64044 1.05621,-1.78801 1.870585,-1.78801 0.499093,0 0.959471,0.2634 1.422811,0.81405 2.702756,3.21204 -3.144772,11.09552 -8.563043,11.54447 -0.90497,0.075 -1.416496,-0.041 -2.064675,-0.46798 z"
         id="path1472"
         inkscape:connector-curvature="0" />
      <path
         style="fill:#aeaeae;fill-opacity:1;stroke-width:0.26458332"
         d="m 30.094596,128.01004 c -0.858593,-0.56564 -1.305073,-1.50871 -1.040584,-2.19796 0.146551,-0.3819 2.42737,-1.75508 2.915156,-1.75508 0.156644,0 0.651659,0.35556 1.100034,0.79014 l 0.815226,0.79015 1.326636,-0.89341 c 1.282902,-0.86395 2.318397,-1.99955 3.004444,-3.29488 0.297236,-0.56122 0.243415,-0.71326 -0.537809,-1.51928 l -0.8681,-0.89565 0.619319,-1.12656 c 0.901826,-1.64044 1.05621,-1.78801 1.870585,-1.78801 0.499093,0 0.959471,0.2634 1.422811,0.81405 2.702756,3.21204 -3.144772,11.09552 -8.563043,11.54447 -0.90497,0.075 -1.416496,-0.041 -2.064675,-0.46798 z"
         id="path1470"
         inkscape:connector-curvature="0" />
      <path
         style="fill:#aaaaaa;fill-opacity:1;stroke-width:0.26458332"
         d="m 30.294793,128.0782 c -0.950495,-0.52228 -1.519901,-1.53874 -1.252434,-2.23575 0.15526,-0.4046 2.418827,-1.78545 2.926809,-1.78545 0.156644,0 0.651659,0.35556 1.100034,0.79014 l 0.815226,0.79015 1.326636,-0.89341 c 1.282902,-0.86395 2.318397,-1.99955 3.004444,-3.29488 0.297236,-0.56122 0.243415,-0.71326 -0.537809,-1.51928 l -0.8681,-0.89565 0.619319,-1.12656 c 0.924552,-1.68178 1.083301,-1.82212 1.963018,-1.73538 0.574887,0.0567 0.981941,0.3389 1.411598,0.97868 0.888452,1.32295 0.797414,2.74383 -0.318751,4.97491 -2.18307,4.3637 -7.465587,7.44948 -10.18999,5.95248 z"
         id="path1468"
         inkscape:connector-curvature="0" />
      <path
         style="fill:#a6a6a6;fill-opacity:1;stroke-width:0.26458332"
         d="m 30.294793,128.0782 c -0.950495,-0.52228 -1.519901,-1.53874 -1.252434,-2.23575 0.15526,-0.4046 2.418827,-1.78545 2.926809,-1.78545 0.156644,0 0.651659,0.35556 1.100034,0.79014 l 0.815226,0.79015 1.326636,-0.89341 c 1.282902,-0.86395 2.318397,-1.99955 3.004444,-3.29488 0.297236,-0.56122 0.243415,-0.71326 -0.537809,-1.51928 l -0.8681,-0.89565 0.619319,-1.12656 c 0.924552,-1.68178 1.083301,-1.82212 1.963018,-1.73538 0.574887,0.0567 0.981941,0.3389 1.411598,0.97868 0.888452,1.32295 0.797414,2.74383 -0.318751,4.97491 -2.18307,4.3637 -7.465587,7.44948 -10.18999,5.95248 z"
         id="path1466"
         inkscape:connector-curvature="0" />
      <path
         style="fill:#a2a2a2;fill-opacity:1;stroke-width:0.26458332"
         d="m 30.294793,128.0782 c -0.950495,-0.52228 -1.519901,-1.53874 -1.252434,-2.23575 0.15526,-0.4046 2.418827,-1.78545 2.926809,-1.78545 0.156644,0 0.651659,0.35556 1.100034,0.79014 l 0.815226,0.79015 1.326636,-0.89341 c 1.282902,-0.86395 2.318397,-1.99955 3.004444,-3.29488 0.297236,-0.56122 0.243415,-0.71326 -0.537809,-1.51928 l -0.8681,-0.89565 0.619319,-1.12656 c 0.924552,-1.68178 1.083301,-1.82212 1.963018,-1.73538 0.574887,0.0567 0.981941,0.3389 1.411598,0.97868 0.888452,1.32295 0.797414,2.74383 -0.318751,4.97491 -2.18307,4.3637 -7.465587,7.44948 -10.18999,5.95248 z"
         id="path1464"
         inkscape:connector-curvature="0" />
      <path
         style="fill:#9d9d9d;fill-opacity:1;stroke-width:0.26458332"
         d="m 30.294793,128.0782 c -0.950495,-0.52228 -1.519901,-1.53874 -1.252434,-2.23575 0.158513,-0.41308 2.423421,-1.78545 2.946632,-1.78545 0.167547,0 0.623257,0.36311 1.012688,0.80691 0.691673,0.78825 0.726624,0.79732 1.510555,0.39193 1.258453,-0.65077 2.619442,-1.95851 3.368522,-3.23671 l 0.68657,-1.17155 -0.828975,-0.85528 c -0.455936,-0.47041 -0.828975,-0.93713 -0.828975,-1.03715 0,-0.10003 0.37139,-0.78546 0.825311,-1.52317 0.737668,-1.19887 0.912377,-1.33275 1.645199,-1.26075 1.072222,0.10535 2.027406,1.47335 2.027406,2.90362 0,1.7092 -1.356052,4.27053 -3.279069,6.19355 -2.748435,2.74843 -5.892621,3.87623 -7.83343,2.8098 z"
         id="path1462"
         inkscape:connector-curvature="0" />
      <path
         style="fill:#999999;fill-opacity:1;stroke-width:0.26458332"
         d="m 30.294793,128.0782 c -0.950495,-0.52228 -1.519901,-1.53874 -1.252434,-2.23575 0.158513,-0.41308 2.423421,-1.78545 2.946632,-1.78545 0.167547,0 0.623257,0.36311 1.012688,0.80691 0.691673,0.78825 0.726624,0.79732 1.510555,0.39193 1.258453,-0.65077 2.619442,-1.95851 3.368522,-3.23671 l 0.68657,-1.17155 -0.828975,-0.85528 c -0.455936,-0.47041 -0.828975,-0.93713 -0.828975,-1.03715 0,-0.10003 0.37139,-0.78546 0.825311,-1.52317 0.737668,-1.19887 0.912377,-1.33275 1.645199,-1.26075 1.072222,0.10535 2.027406,1.47335 2.027406,2.90362 0,1.7092 -1.356052,4.27053 -3.279069,6.19355 -2.748435,2.74843 -5.892621,3.87623 -7.83343,2.8098 z"
         id="path1460"
         inkscape:connector-curvature="0" />
      <path
         style="fill:#959595;fill-opacity:1;stroke-width:0.26458332"
         d="m 30.294793,128.0782 c -0.950495,-0.52228 -1.519901,-1.53874 -1.252434,-2.23575 0.158513,-0.41308 2.423421,-1.78545 2.946632,-1.78545 0.167547,0 0.623257,0.36311 1.012688,0.80691 0.691673,0.78825 0.726624,0.79732 1.510555,0.39193 1.258453,-0.65077 2.619442,-1.95851 3.368522,-3.23671 l 0.68657,-1.17155 -0.828975,-0.85528 c -0.455936,-0.47041 -0.828975,-0.93713 -0.828975,-1.03715 0,-0.10003 0.37139,-0.78546 0.825311,-1.52317 0.737668,-1.19887 0.912377,-1.33275 1.645199,-1.26075 1.072222,0.10535 2.027406,1.47335 2.027406,2.90362 0,1.7092 -1.356052,4.27053 -3.279069,6.19355 -2.748435,2.74843 -5.892621,3.87623 -7.83343,2.8098 z"
         id="path1458"
         inkscape:connector-curvature="0" />
      <path
         style="fill:#919191;fill-opacity:1;stroke-width:0.26458332"
         d="m 30.294793,128.0782 c -0.950495,-0.52228 -1.519901,-1.53874 -1.252434,-2.23575 0.158513,-0.41308 2.423421,-1.78545 2.946632,-1.78545 0.167547,0 0.623257,0.36311 1.012688,0.80691 0.691673,0.78825 0.726624,0.79732 1.510555,0.39193 1.258453,-0.65077 2.619442,-1.95851 3.368522,-3.23671 l 0.68657,-1.17155 -0.828975,-0.85528 c -0.455936,-0.47041 -0.828975,-0.93713 -0.828975,-1.03715 0,-0.10003 0.37139,-0.78546 0.825311,-1.52317 0.737668,-1.19887 0.912377,-1.33275 1.645199,-1.26075 1.072222,0.10535 2.027406,1.47335 2.027406,2.90362 0,1.7092 -1.356052,4.27053 -3.279069,6.19355 -2.748435,2.74843 -5.892621,3.87623 -7.83343,2.8098 z"
         id="path1456"
         inkscape:connector-curvature="0" />
      <path
         style="fill:#8c8c8c;fill-opacity:1;stroke-width:0.26458332"
         d="m 30.250775,128.01908 c -0.946151,-0.49981 -1.551174,-1.71998 -1.163714,-2.3469 0.200808,-0.32492 2.508519,-1.61447 2.894703,-1.61757 0.163572,-10e-4 0.608862,0.37655 0.989533,0.83968 l 0.69213,0.84207 1.189811,-0.69728 c 1.301063,-0.76247 2.601882,-2.11627 3.264303,-3.39725 0.417223,-0.80682 0.410087,-0.8352 -0.427174,-1.69904 l -0.851484,-0.87851 0.794478,-1.40624 c 0.711528,-1.25943 0.886761,-1.40625 1.678353,-1.40625 1.27521,0 2.187362,1.37218 2.030869,3.0551 -0.298342,3.20838 -3.507704,7.18057 -6.898264,8.5379 -2.086292,0.8352 -2.879986,0.86819 -4.193544,0.17429 z"
         id="path1454"
         inkscape:connector-curvature="0" />
      <path
         style="fill:#888888;fill-opacity:1;stroke-width:0.26458332"
         d="m 30.250775,128.01908 c -0.946151,-0.49981 -1.551174,-1.71998 -1.163714,-2.3469 0.200808,-0.32492 2.508519,-1.61447 2.894703,-1.61757 0.163572,-10e-4 0.608862,0.37655 0.989533,0.83968 l 0.69213,0.84207 1.189811,-0.69728 c 1.301063,-0.76247 2.601882,-2.11627 3.264303,-3.39725 0.417223,-0.80682 0.410087,-0.8352 -0.427174,-1.69904 l -0.851484,-0.87851 0.794478,-1.40624 c 0.711528,-1.25943 0.886761,-1.40625 1.678353,-1.40625 1.27521,0 2.187362,1.37218 2.030869,3.0551 -0.298342,3.20838 -3.507704,7.18057 -6.898264,8.5379 -2.086292,0.8352 -2.879986,0.86819 -4.193544,0.17429 z"
         id="path1452"
         inkscape:connector-curvature="0" />
      <path
         style="fill:#848484;fill-opacity:1;stroke-width:0.26458332"
         d="m 30.250775,128.01908 c -0.946151,-0.49981 -1.551174,-1.71998 -1.163714,-2.3469 0.200808,-0.32492 2.508519,-1.61447 2.894703,-1.61757 0.163572,-10e-4 0.608862,0.37655 0.989533,0.83968 l 0.69213,0.84207 1.189811,-0.69728 c 1.301063,-0.76247 2.601882,-2.11627 3.264303,-3.39725 0.417223,-0.80682 0.410087,-0.8352 -0.427174,-1.69904 l -0.851484,-0.87851 0.794478,-1.40624 c 0.711528,-1.25943 0.886761,-1.40625 1.678353,-1.40625 1.27521,0 2.187362,1.37218 2.030869,3.0551 -0.298342,3.20838 -3.507704,7.18057 -6.898264,8.5379 -2.086292,0.8352 -2.879986,0.86819 -4.193544,0.17429 z"
         id="path1450"
         inkscape:connector-curvature="0" />
      <path
         style="fill:#7f7f7f;fill-opacity:1;stroke-width:0.26458332"
         d="m 30.250775,128.01908 c -0.946151,-0.49981 -1.551174,-1.71998 -1.163714,-2.3469 0.200808,-0.32492 2.508519,-1.61447 2.894703,-1.61757 0.163572,-10e-4 0.608862,0.37655 0.989533,0.83968 l 0.69213,0.84207 1.189811,-0.69728 c 1.301063,-0.76247 2.601882,-2.11627 3.264303,-3.39725 0.417223,-0.80682 0.410087,-0.8352 -0.427174,-1.69904 l -0.851484,-0.87851 0.794478,-1.40624 c 0.711528,-1.25943 0.886761,-1.40625 1.678353,-1.40625 1.27521,0 2.187362,1.37218 2.030869,3.0551 -0.298342,3.20838 -3.507704,7.18057 -6.898264,8.5379 -2.086292,0.8352 -2.879986,0.86819 -4.193544,0.17429 z"
         id="path1448"
         inkscape:connector-curvature="0" />
      <path
         style="fill:#7b7b7b;fill-opacity:1;stroke-width:0.26458332"
         d="m 30.377825,128.05433 c -0.873474,-0.54857 -1.405949,-1.29575 -1.405949,-1.97287 0,-0.39927 2.387023,-2.02252 2.980538,-2.02685 0.179714,-10e-4 0.638212,0.37655 1.018883,0.83968 l 0.69213,0.84207 1.203886,-0.70553 c 1.222394,-0.71637 2.701679,-2.24799 3.360958,-3.47986 0.338636,-0.63275 0.304265,-0.73928 -0.509353,-1.57872 l -0.872494,-0.90019 0.844644,-1.47628 c 0.58094,-1.01538 1.009222,-1.47628 1.371786,-1.47628 1.433898,0 2.480322,1.52167 2.278395,3.31316 -0.562806,4.9932 -7.746151,10.64221 -10.963424,8.62167 z"
         id="path1446"
         inkscape:connector-curvature="0" />
      <path
         style="fill:#777777;fill-opacity:1;stroke-width:0.26458332"
         d="m 30.377825,128.05433 c -0.873474,-0.54857 -1.405949,-1.29575 -1.405949,-1.97287 0,-0.39927 2.387023,-2.02252 2.980538,-2.02685 0.179714,-10e-4 0.638212,0.37655 1.018883,0.83968 l 0.69213,0.84207 1.203886,-0.70553 c 1.222394,-0.71637 2.701679,-2.24799 3.360958,-3.47986 0.338636,-0.63275 0.304265,-0.73928 -0.509353,-1.57872 l -0.872494,-0.90019 0.844644,-1.47628 c 0.58094,-1.01538 1.009222,-1.47628 1.371786,-1.47628 1.433898,0 2.480322,1.52167 2.278395,3.31316 -0.562806,4.9932 -7.746151,10.64221 -10.963424,8.62167 z"
         id="path1444"
         inkscape:connector-curvature="0" />
      <path
         style="fill:#737373;fill-opacity:1;stroke-width:0.26458332"
         d="m 30.377825,128.05433 c -0.873474,-0.54857 -1.405949,-1.29575 -1.405949,-1.97287 0,-0.39927 2.387023,-2.02252 2.980538,-2.02685 0.179714,-10e-4 0.638212,0.37655 1.018883,0.83968 l 0.69213,0.84207 1.203886,-0.70553 c 1.222394,-0.71637 2.701679,-2.24799 3.360958,-3.47986 0.338636,-0.63275 0.304265,-0.73928 -0.509353,-1.57872 l -0.872494,-0.90019 0.844644,-1.47628 c 0.58094,-1.01538 1.009222,-1.47628 1.371786,-1.47628 1.433898,0 2.480322,1.52167 2.278395,3.31316 -0.562806,4.9932 -7.746151,10.64221 -10.963424,8.62167 z"
         id="path1442"
         inkscape:connector-curvature="0" />
      <path
         style="fill:#6e6e6e;fill-opacity:1;stroke-width:0.26458332"
         d="m 30.355543,128.04078 c -0.92081,-0.57782 -1.5422,-1.6073 -1.316435,-2.18097 0.07524,-0.19118 0.810847,-0.70479 1.634688,-1.14136 l 1.497893,-0.79375 0.745869,0.90583 0.745869,0.90583 1.203886,-0.70553 c 1.222394,-0.71637 2.701679,-2.24799 3.360958,-3.47986 0.338636,-0.63275 0.304265,-0.73928 -0.509353,-1.57872 l -0.872494,-0.90019 0.844644,-1.47628 c 0.58094,-1.01538 1.009222,-1.47628 1.371786,-1.47628 1.433898,0 2.480322,1.52167 2.278395,3.31316 -0.44192,3.9207 -5.018855,8.50804 -8.987931,9.00835 -0.861289,0.10857 -1.339694,0.0127 -1.997775,-0.40023 z"
         id="path1440"
         inkscape:connector-curvature="0" />
      <path
         style="fill:#6a6a6a;fill-opacity:1;stroke-width:0.26458332"
         d="m 30.645492,128.16885 c -0.945115,-0.4111 -1.762127,-1.48385 -1.629375,-2.13939 0.04843,-0.23915 0.7764,-0.81055 1.617715,-1.26978 l 1.529665,-0.83498 0.749965,0.90583 0.749965,0.90583 1.159953,-0.68487 c 1.310423,-0.77371 2.571998,-2.03967 3.294844,-3.3063 l 0.488849,-0.8566 -0.869379,-0.89697 -0.869377,-0.89697 0.839536,-1.48758 c 0.866589,-1.53551 1.341566,-1.77688 2.391178,-1.21515 0.279969,0.14984 0.68886,0.62018 0.908648,1.0452 1.572011,3.03993 -2.441546,9.00463 -7.122848,10.58553 -1.840539,0.62156 -2.117745,0.63407 -3.239339,0.1462 z"
         id="path1438"
         inkscape:connector-curvature="0" />
      <path
         style="fill:#666666;fill-opacity:1;stroke-width:0.26458332"
         d="m 30.645492,128.16885 c -0.945115,-0.4111 -1.762127,-1.48385 -1.629375,-2.13939 0.04843,-0.23915 0.7764,-0.81055 1.617715,-1.26978 l 1.529665,-0.83498 0.749965,0.90583 0.749965,0.90583 1.159953,-0.68487 c 1.310423,-0.77371 2.571998,-2.03967 3.294844,-3.3063 l 0.488849,-0.8566 -0.869379,-0.89697 -0.869377,-0.89697 0.839536,-1.48758 c 0.866589,-1.53551 1.341566,-1.77688 2.391178,-1.21515 0.279969,0.14984 0.68886,0.62018 0.908648,1.0452 1.572011,3.03993 -2.441546,9.00463 -7.122848,10.58553 -1.840539,0.62156 -2.117745,0.63407 -3.239339,0.1462 z"
         id="path1436"
         inkscape:connector-curvature="0" />
      <path
         style="fill:#626262;fill-opacity:1;stroke-width:0.26458332"
         d="m 30.645492,128.16885 c -0.945115,-0.4111 -1.762127,-1.48385 -1.629375,-2.13939 0.04843,-0.23915 0.7764,-0.81055 1.617715,-1.26978 l 1.529665,-0.83498 0.749965,0.90583 0.749965,0.90583 1.159953,-0.68487 c 1.310423,-0.77371 2.571998,-2.03967 3.294844,-3.3063 l 0.488849,-0.8566 -0.869379,-0.89697 -0.869377,-0.89697 0.839536,-1.48758 c 0.866589,-1.53551 1.341566,-1.77688 2.391178,-1.21515 0.279969,0.14984 0.68886,0.62018 0.908648,1.0452 1.572011,3.03993 -2.441546,9.00463 -7.122848,10.58553 -1.840539,0.62156 -2.117745,0.63407 -3.239339,0.1462 z"
         id="path1434"
         inkscape:connector-curvature="0" />
      <path
         style="fill:#5d5d5d;fill-opacity:1;stroke-width:0.26458332"
         d="m 30.645492,128.18146 c -0.948645,-0.42688 -1.761356,-1.50027 -1.629375,-2.152 0.04843,-0.23915 0.767562,-0.81055 1.598076,-1.26978 l 1.510026,-0.83498 0.772665,0.92196 c 0.747559,0.89199 0.796617,0.90919 1.509862,0.52916 1.179021,-0.62819 3.120362,-2.50297 3.67243,-3.54651 l 0.508342,-0.96089 -0.859601,-0.88689 -0.8596,-0.88688 0.839536,-1.48758 c 0.960868,-1.70256 1.694275,-1.92929 2.767889,-0.85568 1.434137,1.43414 1.010955,4.20921 -1.073717,7.04104 -1.313885,1.78479 -2.744803,2.95631 -4.709538,3.85579 -1.87728,0.85945 -2.994848,1.0067 -4.046995,0.53324 z"
         id="path1432"
         inkscape:connector-curvature="0" />
      <path
         style="fill:#595959;fill-opacity:1;stroke-width:0.26458332"
         d="m 30.645492,128.18146 c -0.948645,-0.42688 -1.761356,-1.50027 -1.629375,-2.152 0.04843,-0.23915 0.767562,-0.81055 1.598076,-1.26978 l 1.510026,-0.83498 0.772665,0.92196 c 0.747559,0.89199 0.796617,0.90919 1.509862,0.52916 1.179021,-0.62819 3.120362,-2.50297 3.67243,-3.54651 l 0.508342,-0.96089 -0.859601,-0.88689 -0.8596,-0.88688 0.839536,-1.48758 c 0.960868,-1.70256 1.694275,-1.92929 2.767889,-0.85568 1.434137,1.43414 1.010955,4.20921 -1.073717,7.04104 -1.313885,1.78479 -2.744803,2.95631 -4.709538,3.85579 -1.87728,0.85945 -2.994848,1.0067 -4.046995,0.53324 z"
         id="path1430"
         inkscape:connector-curvature="0" />
      <path
         style="fill:#555555;fill-opacity:1;stroke-width:0.26458332"
         d="m 30.645492,128.18146 c -0.948645,-0.42688 -1.761356,-1.50027 -1.629375,-2.152 0.04843,-0.23915 0.767562,-0.81055 1.598076,-1.26978 l 1.510026,-0.83498 0.772665,0.92196 c 0.747559,0.89199 0.796617,0.90919 1.509862,0.52916 1.179021,-0.62819 3.120362,-2.50297 3.67243,-3.54651 l 0.508342,-0.96089 -0.859601,-0.88689 -0.8596,-0.88688 0.839536,-1.48758 c 0.960868,-1.70256 1.694275,-1.92929 2.767889,-0.85568 1.434137,1.43414 1.010955,4.20921 -1.073717,7.04104 -1.313885,1.78479 -2.744803,2.95631 -4.709538,3.85579 -1.87728,0.85945 -2.994848,1.0067 -4.046995,0.53324 z"
         id="path1428"
         inkscape:connector-curvature="0" />
      <path
         style="fill:#515151;fill-opacity:1;stroke-width:0.26458332"
         d="m 30.645492,128.18146 c -0.948645,-0.42688 -1.761356,-1.50027 -1.629375,-2.152 0.04843,-0.23915 0.767562,-0.81055 1.598076,-1.26978 l 1.510026,-0.83498 0.772665,0.92196 c 0.747559,0.89199 0.796617,0.90919 1.509862,0.52916 1.179021,-0.62819 3.120362,-2.50297 3.67243,-3.54651 l 0.508342,-0.96089 -0.859601,-0.88689 -0.8596,-0.88688 0.839536,-1.48758 c 0.960868,-1.70256 1.694275,-1.92929 2.767889,-0.85568 1.434137,1.43414 1.010955,4.20921 -1.073717,7.04104 -1.313885,1.78479 -2.744803,2.95631 -4.709538,3.85579 -1.87728,0.85945 -2.994848,1.0067 -4.046995,0.53324 z"
         id="path1426"
         inkscape:connector-curvature="0" />
      <path
         style="fill:#4c4c4c;fill-opacity:1;stroke-width:0.26458332"
         d="m 30.691566,128.20084 c -0.960774,-0.43399 -1.356838,-0.88206 -1.585699,-1.79392 -0.15656,-0.62378 -0.03233,-0.76928 1.297638,-1.51987 0.808924,-0.45653 1.526072,-0.83005 1.593661,-0.83005 0.06759,0 0.478209,0.38019 0.912489,0.84487 l 0.789601,0.84487 0.970846,-0.51414 c 1.200271,-0.63565 3.505105,-3.10499 3.728352,-3.99448 0.132278,-0.52704 -0.0067,-0.80224 -0.695733,-1.37745 l -0.861038,-0.71883 0.852853,-1.51117 c 0.97481,-1.72727 1.702999,-1.95748 2.781206,-0.87928 1.43948,1.43948 1.005107,4.24736 -1.087742,7.03138 -1.350375,1.79634 -2.830858,3.01179 -4.724513,3.87873 -1.828556,0.83714 -2.969621,0.99208 -3.971921,0.53934 z"
         id="path1424"
         inkscape:connector-curvature="0" />
      <path
         style="fill:#484848;fill-opacity:1;stroke-width:0.26458332"
         d="m 30.691566,128.20084 c -0.960774,-0.43399 -1.356838,-0.88206 -1.585699,-1.79392 -0.15656,-0.62378 -0.03233,-0.76928 1.297638,-1.51987 0.808924,-0.45653 1.526072,-0.83005 1.593661,-0.83005 0.06759,0 0.478209,0.38019 0.912489,0.84487 l 0.789601,0.84487 0.970846,-0.51414 c 1.200271,-0.63565 3.505105,-3.10499 3.728352,-3.99448 0.132278,-0.52704 -0.0067,-0.80224 -0.695733,-1.37745 l -0.861038,-0.71883 0.852853,-1.51117 c 0.97481,-1.72727 1.702999,-1.95748 2.781206,-0.87928 1.43948,1.43948 1.005107,4.24736 -1.087742,7.03138 -1.350375,1.79634 -2.830858,3.01179 -4.724513,3.87873 -1.828556,0.83714 -2.969621,0.99208 -3.971921,0.53934 z"
         id="path1422"
         inkscape:connector-curvature="0" />
      <path
         style="fill:#444444;fill-opacity:1;stroke-width:0.26458332"
         d="m 30.691566,128.20084 c -0.960774,-0.43399 -1.356838,-0.88206 -1.585699,-1.79392 -0.15656,-0.62378 -0.03233,-0.76928 1.297638,-1.51987 0.808924,-0.45653 1.526072,-0.83005 1.593661,-0.83005 0.06759,0 0.478209,0.38019 0.912489,0.84487 l 0.789601,0.84487 0.970846,-0.51414 c 1.200271,-0.63565 3.505105,-3.10499 3.728352,-3.99448 0.132278,-0.52704 -0.0067,-0.80224 -0.695733,-1.37745 l -0.861038,-0.71883 0.852853,-1.51117 c 0.97481,-1.72727 1.702999,-1.95748 2.781206,-0.87928 1.43948,1.43948 1.005107,4.24736 -1.087742,7.03138 -1.350375,1.79634 -2.830858,3.01179 -4.724513,3.87873 -1.828556,0.83714 -2.969621,0.99208 -3.971921,0.53934 z"
         id="path1420"
         inkscape:connector-curvature="0" />
      <path
         style="fill:#404040;fill-opacity:1;stroke-width:0.26458332"
         d="m 30.691566,128.20084 c -0.960774,-0.43399 -1.356838,-0.88206 -1.585699,-1.79392 -0.15656,-0.62378 -0.03233,-0.76928 1.297638,-1.51987 0.808924,-0.45653 1.526072,-0.83005 1.593661,-0.83005 0.06759,0 0.478209,0.38019 0.912489,0.84487 l 0.789601,0.84487 0.970846,-0.51414 c 1.200271,-0.63565 3.505105,-3.10499 3.728352,-3.99448 0.132278,-0.52704 -0.0067,-0.80224 -0.695733,-1.37745 l -0.861038,-0.71883 0.852853,-1.51117 c 0.97481,-1.72727 1.702999,-1.95748 2.781206,-0.87928 1.43948,1.43948 1.005107,4.24736 -1.087742,7.03138 -1.350375,1.79634 -2.830858,3.01179 -4.724513,3.87873 -1.828556,0.83714 -2.969621,0.99208 -3.971921,0.53934 z"
         id="path1418"
         inkscape:connector-curvature="0" />
      <path
         style="fill:#3b3b3b;fill-opacity:1;stroke-width:0.26458332"
         d="m 30.934731,128.27316 c -0.971109,-0.28518 -1.593765,-0.91983 -1.829521,-1.86476 -0.156013,-0.62531 -0.03209,-0.77053 1.298295,-1.52135 0.808924,-0.45653 1.526072,-0.83005 1.593661,-0.83005 0.06759,0 0.483386,0.38573 0.923993,0.85718 l 0.801103,0.85717 0.954803,-0.51419 c 1.188644,-0.64013 3.499793,-3.13613 3.721389,-4.01904 0.132022,-0.52601 -0.006,-0.80161 -0.685341,-1.36878 l -0.850645,-0.71015 0.872956,-1.51984 c 1.006713,-1.75273 1.700752,-1.96105 2.752516,-0.82617 0.905315,0.97685 1.063184,2.17507 0.507859,3.85464 -0.956555,2.89308 -3.364829,5.61238 -6.066064,6.8495 -1.930845,0.8843 -2.920192,1.07148 -3.995004,0.75584 z"
         id="path1416"
         inkscape:connector-curvature="0" />
      <path
         style="fill:#373737;fill-opacity:1;stroke-width:0.26458332"
         d="m 30.934731,128.27316 c -0.971109,-0.28518 -1.593765,-0.91983 -1.829521,-1.86476 -0.156013,-0.62531 -0.03209,-0.77053 1.298295,-1.52135 0.808924,-0.45653 1.526072,-0.83005 1.593661,-0.83005 0.06759,0 0.483386,0.38573 0.923993,0.85718 l 0.801103,0.85717 0.954803,-0.51419 c 1.188644,-0.64013 3.499793,-3.13613 3.721389,-4.01904 0.132022,-0.52601 -0.006,-0.80161 -0.685341,-1.36878 l -0.850645,-0.71015 0.872956,-1.51984 c 1.006713,-1.75273 1.700752,-1.96105 2.752516,-0.82617 0.905315,0.97685 1.063184,2.17507 0.507859,3.85464 -0.956555,2.89308 -3.364829,5.61238 -6.066064,6.8495 -1.930845,0.8843 -2.920192,1.07148 -3.995004,0.75584 z"
         id="path1414"
         inkscape:connector-curvature="0" />
      <path
         style="fill:#333333;fill-opacity:1;stroke-width:0.26458332"
         d="m 30.934731,128.27316 c -0.971109,-0.28518 -1.593765,-0.91983 -1.829521,-1.86476 -0.156013,-0.62531 -0.03209,-0.77053 1.298295,-1.52135 0.808924,-0.45653 1.526072,-0.83005 1.593661,-0.83005 0.06759,0 0.483386,0.38573 0.923993,0.85718 l 0.801103,0.85717 0.954803,-0.51419 c 1.188644,-0.64013 3.499793,-3.13613 3.721389,-4.01904 0.132022,-0.52601 -0.006,-0.80161 -0.685341,-1.36878 l -0.850645,-0.71015 0.872956,-1.51984 c 1.006713,-1.75273 1.700752,-1.96105 2.752516,-0.82617 0.905315,0.97685 1.063184,2.17507 0.507859,3.85464 -0.956555,2.89308 -3.364829,5.61238 -6.066064,6.8495 -1.930845,0.8843 -2.920192,1.07148 -3.995004,0.75584 z"
         id="path1412"
         inkscape:connector-curvature="0" />
    </g>
  </g>
</svg>
